<?xml version="1.0" encoding="utf-8"?>
<svg viewBox="0 0 500 500" xmlns="http://www.w3.org/2000/svg">
  <path clip-rule="evenodd" d="M 276.042 119.848 C 276.823 119.848 277.734 119.848 278.646 119.848 C 279.557 119.848 280.469 119.848 281.25 119.848 C 306.414 119.848 330.166 126.004 351.196 136.951 C 372.226 147.899 390.534 163.639 404.812 182.806 C 412.186 195.953 418.111 209.876 422.274 224.255 C 426.438 238.635 428.84 253.469 429.167 268.438 C 429.552 283.655 429.297 293.846 426.804 300.81 C 424.312 307.775 419.581 311.514 411.012 313.829 C 412.854 307.143 414.267 300.266 415.221 293.232 C 416.174 286.198 416.667 279.006 416.667 271.692 C 416.667 230.748 401.042 193.465 375.651 166.079 C 350.261 138.692 315.105 121.203 276.042 119.848 Z M 284.603 422.873 C 285.141 426.657 285.736 430.398 286.393 434.095 C 287.049 437.792 287.768 441.446 288.554 445.054 C 287.344 445.112 286.13 445.155 284.913 445.184 C 283.696 445.213 282.475 445.228 281.25 445.228 C 279.123 445.228 277.006 445.184 274.9 445.097 C 272.794 445.01 270.699 444.879 268.615 444.707 C 267.648 441.241 266.735 437.728 265.88 434.168 C 265.025 430.608 264.226 427.001 263.486 423.346 C 264.703 423.409 265.924 423.457 267.149 423.488 C 268.373 423.52 269.602 423.536 270.833 423.536 C 273.155 423.536 275.465 423.48 277.76 423.369 C 280.056 423.258 282.337 423.092 284.603 422.873 Z M 132.407 319.977 C 132.099 321.196 131.842 322.474 131.634 323.811 C 131.426 325.148 131.266 326.544 131.152 327.998 C 129.149 320.787 127.611 313.369 126.574 305.78 C 125.536 298.191 125 290.431 125 282.538 L 125 279.826 L 125 277.114 C 125.239 284.583 126 291.914 127.247 299.07 C 128.494 306.227 130.226 313.208 132.407 319.977 Z M 437.5 282.538 C 437.5 263.728 434.453 245.676 428.844 228.885 C 423.234 212.095 415.062 196.567 404.812 182.806 C 388.676 154.039 365.605 128.996 338.882 111.051 C 312.16 93.106 281.785 82.26 251.042 81.887 C 205.73 81.345 161.068 103.037 127.149 136.727 C 93.23 170.417 70.053 216.106 67.709 263.557 C 66.668 285.792 66.928 297.993 72.852 305.585 C 78.776 313.178 90.365 316.16 111.979 319.956 C 114.323 344.902 113.672 364.424 108.725 382.049 C 103.777 399.674 94.532 415.4 79.688 432.753 C 81.771 434.652 83.724 436.415 85.742 438.177 C 87.761 439.94 89.844 441.702 92.188 443.6 C 92.709 443.058 93.229 442.516 93.685 441.906 C 94.141 441.295 94.532 440.617 94.792 439.804 C 108.073 420.823 117.969 407.402 124.154 393.234 C 130.339 379.067 132.813 364.153 131.25 342.19 C 131.064 339.574 130.957 337.084 130.938 334.719 C 130.919 332.354 130.987 330.113 131.152 327.998 C 134.047 338.421 137.914 348.409 142.645 357.85 C 147.375 367.291 152.968 376.184 159.317 384.418 C 156.614 393.281 153.327 402.269 149.502 411.877 C 145.676 421.485 141.313 431.714 136.459 443.059 C 134.635 447.125 132.812 451.057 130.859 454.853 C 128.906 458.648 126.823 462.309 124.479 465.834 C 127.344 467.461 130.209 469.088 133.073 470.647 C 135.938 472.206 138.802 473.697 141.667 475.053 C 144.792 469.63 147.526 463.936 149.935 457.971 C 152.344 452.006 154.427 445.769 156.25 439.261 C 158.507 430.946 160.706 423.324 162.825 416.154 C 164.945 408.984 166.985 402.265 168.924 395.758 C 173.285 400.448 177.916 404.865 182.79 408.982 C 187.665 413.099 192.784 416.916 198.121 420.406 C 196.786 424.719 195.402 429.15 193.976 433.729 C 192.55 438.308 191.084 443.034 189.583 447.938 C 187.5 454.988 185.156 461.767 182.552 468.343 C 179.948 474.918 177.084 481.29 173.959 487.527 C 176.823 488.34 179.688 489.153 182.552 489.967 C 185.417 490.781 188.282 491.595 191.146 492.408 C 192.969 488.611 194.792 484.679 196.55 480.68 C 198.307 476.68 200 472.614 201.562 468.547 C 204.151 461.626 206.626 455.029 208.975 448.679 C 211.324 442.329 213.546 436.226 215.629 430.289 C 223.79 434.215 232.335 437.43 241.191 439.858 C 250.046 442.286 259.212 443.928 268.615 444.707 C 271.191 453.934 274.159 462.832 277.49 471.411 C 280.821 479.991 284.515 488.251 288.542 496.203 C 291.407 495.661 294.141 495.119 296.81 494.577 C 299.479 494.034 302.084 493.492 304.688 492.95 C 301.066 485.481 297.957 477.75 295.291 469.764 C 292.626 461.779 290.403 453.539 288.554 445.054 C 294.098 444.79 299.566 444.227 304.942 443.38 C 310.319 442.532 315.604 441.401 320.784 440.001 C 323.209 447.535 326.103 454.781 329.489 461.716 C 332.876 468.65 336.754 475.273 341.146 481.561 C 344.011 480.477 347.006 479.256 350.001 477.968 C 352.996 476.68 355.99 475.325 358.854 473.969 C 353.755 467.788 349.462 461.43 345.851 454.881 C 342.24 448.331 339.312 441.589 336.943 434.637 C 344.402 431.684 351.585 428.154 358.443 424.1 C 365.301 420.046 371.833 415.466 377.989 410.415 C 378.625 412.817 379.298 415.36 380.014 418.078 C 380.73 420.796 381.488 423.689 382.292 426.789 C 383.073 429.229 384.766 432.89 387.044 437.228 C 389.323 441.567 392.187 446.583 395.312 451.736 C 397.917 449.837 400.391 447.938 402.8 446.04 C 405.209 444.142 407.553 442.244 409.896 440.347 C 406.019 432.041 402.569 424.446 399.532 417.406 C 396.495 410.366 393.871 403.882 391.647 397.797 C 405.819 383.081 417.282 365.539 425.202 346.039 C 433.123 326.54 437.5 305.083 437.5 282.538 Z M 270.833 33.08 C 270.833 27.115 268.49 21.692 264.714 17.76 C 260.938 13.829 255.73 11.389 250 11.389 C 186.719 11.389 129.427 38.097 87.956 81.277 C 46.484 124.458 20.833 184.111 20.833 250 C 20.833 255.965 23.177 261.388 26.953 265.32 C 30.73 269.252 35.938 271.692 41.667 271.692 C 47.397 271.692 52.605 269.252 56.381 265.32 C 60.157 261.388 62.5 255.965 62.5 250 C 62.5 196.041 83.464 147.234 117.383 111.917 C 151.302 76.6 198.177 54.772 250 54.772 C 255.73 54.772 260.938 52.332 264.714 48.4 C 268.49 44.468 270.833 39.045 270.833 33.08 Z M 500 250 C 500 319.036 472.018 381.536 426.777 426.777 C 381.535 472.018 319.035 500 250 500 C 180.965 500 118.464 472.018 73.223 426.777 C 27.982 381.535 0 319.035 0 250 C 0 180.965 27.982 118.464 73.223 73.223 C 118.464 27.982 180.964 0 250 0 C 319.035 0 381.535 27.982 426.777 73.223 C 472.018 118.464 500 180.964 500 250 Z M 181.25 107.374 L 210.889 107.374 L 240.527 107.374 C 230.647 109.883 220.768 112.392 210.889 114.901 C 201.009 117.41 191.13 119.919 181.25 122.427 L 181.25 114.901 Z M 248.438 107.374 L 248.438 121.746 L 248.438 136.117 L 218.494 136.117 L 188.55 136.117 C 198.305 133.586 208.172 131.055 218.154 128.524 C 228.135 125.994 238.23 123.463 248.438 120.932 L 246.75 114.153 L 245.062 107.374 L 246.75 107.374 Z M 181.25 136.117 L 181.25 130.479 L 181.25 124.841 C 181.704 126.72 182.211 128.599 182.712 130.479 C 183.213 132.358 183.707 134.238 184.136 136.117 L 182.693 136.117 Z M 167.188 300.976 C 168.358 315.586 168.49 328.339 167.666 340.104 C 166.842 351.869 165.061 362.645 162.405 373.3 C 155.776 365.658 149.883 357.313 144.843 348.385 C 139.804 339.458 135.619 329.948 132.407 319.977 C 134.161 313.044 137.581 308.01 143.2 304.851 C 148.819 301.692 156.638 300.408 167.188 300.976 Z M 185.938 312.364 C 186.719 302.331 188.542 295.417 192.838 291.621 C 197.135 287.825 203.906 287.147 214.583 289.587 C 217.308 313.301 217.124 332.848 214.845 351.23 C 212.565 369.612 208.192 386.828 202.54 405.88 C 197.073 402.86 191.811 399.49 186.782 395.797 C 181.753 392.105 176.958 388.091 172.424 383.783 C 175.47 373.081 178.189 362.551 180.476 351.035 C 182.763 339.519 184.618 327.015 185.938 312.364 Z M 234.376 306.399 C 233.594 294.469 235.417 287.419 239.649 284.233 C 243.881 281.047 250.522 281.725 259.376 285.249 C 260.677 308.568 259.245 324.295 258.138 339.818 C 257.031 355.341 256.25 370.661 258.854 393.167 C 259.409 398.368 260.075 403.483 260.848 408.513 C 261.622 413.542 262.502 418.486 263.486 423.346 C 256.059 422.961 248.774 421.996 241.674 420.493 C 234.573 418.99 227.656 416.949 220.965 414.413 C 226.361 397.486 230.413 381.401 232.766 364.089 C 235.119 346.777 235.774 328.237 234.376 306.399 Z M 280.209 289.587 C 291.668 287.147 298.959 287.554 303.517 291.146 C 308.074 294.739 309.897 301.518 310.417 311.821 C 311.682 334.215 310.857 349.826 310.69 365.12 C 310.523 380.414 311.014 395.391 314.909 416.518 C 310.06 418.109 305.1 419.444 300.044 420.508 C 294.988 421.573 289.837 422.366 284.603 422.873 C 281.77 402.933 280.512 381.793 280.042 359.548 C 279.572 337.303 279.891 313.952 280.209 289.587 Z M 314.909 416.518 C 317.643 415.621 320.341 414.643 323.001 413.586 C 325.662 412.529 328.285 411.394 330.867 410.182 C 331.581 414.401 332.429 418.546 333.434 422.62 C 334.439 426.695 335.601 430.7 336.943 434.637 C 334.315 435.677 331.654 436.646 328.96 437.54 C 326.266 438.435 323.54 439.256 320.784 440.001 C 319.759 436.815 318.818 433.578 317.959 430.29 C 317.099 427.003 316.322 423.666 315.626 420.281 C 315.5 419.643 315.378 419.011 315.258 418.383 C 315.139 417.756 315.022 417.135 314.909 416.518 Z M 328.126 299.349 C 346.615 303.145 355.078 305.178 359.31 310.33 C 363.542 315.482 363.542 323.752 365.104 340.021 C 366.097 349.84 367.001 357.628 367.943 364.337 C 368.885 371.046 369.865 376.677 371.01 382.183 C 365.156 387.938 358.842 393.192 352.13 397.88 C 345.419 402.568 338.311 406.691 330.867 410.182 C 328.143 394.079 327.382 376.905 327.34 358.49 C 327.298 340.075 327.974 320.419 328.126 299.349 Z M 386.459 317.246 C 391.704 316.821 396.324 316.376 400.393 315.833 C 404.461 315.29 407.977 314.649 411.012 313.829 C 408.23 323.932 404.47 333.597 399.847 342.71 C 395.223 351.823 389.736 360.382 383.496 368.271 C 382.135 359.994 381.739 352.033 382.252 343.744 C 382.765 335.455 384.186 326.837 386.459 317.246 Z M 391.647 397.797 C 389.492 400.035 387.275 402.207 384.997 404.311 C 382.72 406.415 380.383 408.451 377.989 410.415 C 376.471 404.679 375.17 399.753 374.026 395.195 C 372.883 390.637 371.897 386.448 371.01 382.183 C 373.227 380.004 375.379 377.752 377.461 375.432 C 379.543 373.112 381.556 370.724 383.496 368.271 C 384.25 372.853 385.3 377.531 386.655 382.416 C 388.01 387.3 389.671 392.391 391.647 397.797 Z M 215.629 430.289 C 212.6 428.833 209.625 427.278 206.706 425.63 C 203.786 423.981 200.924 422.239 198.121 420.406 C 198.893 417.914 199.648 415.461 200.385 413.041 C 201.122 410.622 201.841 408.237 202.54 405.88 C 205.497 407.514 208.514 409.044 211.586 410.468 C 214.658 411.891 217.786 413.208 220.965 414.413 C 220.137 417.01 219.277 419.626 218.388 422.269 C 217.498 424.913 216.578 427.584 215.629 430.289 Z M 168.924 395.758 C 167.241 393.948 165.597 392.096 163.996 390.206 C 162.394 388.315 160.834 386.386 159.317 384.418 C 159.884 382.56 160.425 380.708 160.939 378.857 C 161.454 377.005 161.943 375.155 162.405 373.3 C 163.993 375.13 165.622 376.92 167.293 378.667 C 168.963 380.415 170.674 382.121 172.424 383.783 C 171.862 385.757 171.289 387.738 170.705 389.731 C 170.122 391.725 169.528 393.731 168.924 395.758 Z M 245.062 107.374 L 242.795 107.374 L 240.527 107.374 C 241.238 107.194 241.949 107.013 242.659 106.833 C 243.37 106.652 244.081 106.471 244.792 106.291 L 244.927 106.833 Z M 181.25 122.427 L 181.25 123.634 L 181.25 124.841 C 181.158 124.461 181.068 124.08 180.981 123.7 C 180.894 123.319 180.81 122.939 180.729 122.559 C 180.816 122.537 180.903 122.515 180.99 122.493 C 181.076 122.471 181.163 122.449 181.25 122.427 Z M 184.136 136.117 L 186.343 136.117 L 188.55 136.117 C 187.854 136.298 187.157 136.479 186.461 136.659 C 185.766 136.84 185.07 137.021 184.376 137.202 C 184.337 137.021 184.298 136.84 184.258 136.659 C 184.218 136.479 184.177 136.298 184.136 136.117 Z M 289.062 194.142 C 289.062 205.26 284.635 215.428 277.539 222.817 C 270.443 230.206 260.677 234.816 250 234.816 C 239.323 234.816 229.558 230.206 222.461 222.817 C 215.365 215.428 210.938 205.26 210.938 194.142 C 210.938 192.787 210.938 191.432 211.003 190.144 C 211.068 188.856 211.199 187.635 211.459 186.551 C 212.501 190.89 214.974 194.55 218.295 197.125 C 221.615 199.701 225.782 201.192 230.209 201.192 C 235.678 201.192 240.625 199.159 244.206 195.702 C 247.786 192.245 250 187.364 250 181.67 C 250 181.533 249.999 181.396 249.996 181.259 C 249.994 181.123 249.99 180.986 249.985 180.851 C 249.99 180.717 249.994 180.582 249.996 180.448 C 249.999 180.313 250 180.178 250 180.043 C 250 174.502 247.843 169.485 244.356 165.854 C 240.868 162.223 236.051 159.977 230.729 159.977 C 230.43 159.977 230.132 159.984 229.835 159.998 C 229.539 160.012 229.245 160.033 228.952 160.061 C 231.957 157.936 235.283 156.289 238.825 155.172 C 242.368 154.055 246.128 153.47 250 153.47 C 260.677 153.47 270.443 158.08 277.539 165.469 C 284.635 172.857 289.062 183.025 289.062 194.142 Z M 230.209 161.063 L 228.907 161.063 L 227.604 161.063 C 227.825 160.89 228.048 160.721 228.272 160.554 C 228.497 160.387 228.723 160.222 228.952 160.061 C 224.046 160.528 219.673 162.909 216.525 166.48 C 213.378 170.052 211.457 174.814 211.457 180.043 C 211.457 185.584 213.614 190.6 217.101 194.231 C 220.589 197.862 225.407 200.108 230.729 200.108 C 235.92 200.108 240.633 197.97 244.098 194.494 C 247.563 191.018 249.781 186.204 249.985 180.851 C 249.778 175.346 247.503 170.399 243.944 166.829 C 240.386 163.258 235.545 161.063 230.209 161.063 Z" fill-rule="evenodd" style="stroke-width: 0px;" transform="matrix(0.9999999999999999, 0, 0, 0.9999999999999999, 0, 0)"/>
</svg>