<?xml version="1.0" encoding="utf-8"?>
<svg viewBox="0 0 500 500" xmlns="http://www.w3.org/2000/svg">
  <path opacity="1.000000" stroke="none" d="M 213.364 275.82 C 213.726 275.562 214.172 275.494 214.909 275.508 C 214.971 275.509 215.035 275.511 215.101 275.513 C 214.798 275.745 214.13 275.895 213.364 275.82 Z M 148.929 230.874 C 149.117 230.756 149.384 230.922 149.654 231.43 C 149.508 231.458 149.291 231.252 148.929 230.874 Z M 137.817 219.917 C 138.005 219.8 138.271 219.965 138.542 220.473 C 138.396 220.501 138.179 220.295 137.817 219.917 Z M 138.928 221.012 C 139.116 220.895 139.383 221.061 139.653 221.569 C 139.507 221.596 139.29 221.39 138.928 221.012 Z M 140.039 222.108 C 140.227 221.991 140.494 222.156 140.764 222.665 C 140.618 222.692 140.402 222.486 140.039 222.108 Z M 141.151 223.204 C 141.338 223.087 141.605 223.252 141.875 223.76 C 141.73 223.788 141.513 223.582 141.151 223.204 Z M 142.262 224.3 C 142.45 224.182 142.716 224.348 142.986 224.856 C 142.841 224.884 142.624 224.678 142.262 224.3 Z M 143.373 225.395 C 143.561 225.278 143.828 225.443 144.098 225.952 C 143.952 225.979 143.735 225.773 143.373 225.395 Z M 145.596 227.587 C 145.783 227.469 146.05 227.635 146.32 228.143 C 146.175 228.171 145.958 227.965 145.596 227.587 Z M 146.707 228.682 C 146.895 228.565 147.161 228.73 147.431 229.239 C 147.286 229.266 147.069 229.06 146.707 228.682 Z M 147.818 229.778 C 148.006 229.661 148.272 229.826 148.543 230.335 C 148.397 230.362 148.18 230.156 147.818 229.778 Z M 163.375 245.117 C 163.563 245 163.83 245.166 164.1 245.674 C 163.954 245.701 163.737 245.495 163.375 245.117 Z M 164.486 246.213 C 164.674 246.096 164.941 246.261 165.211 246.77 C 165.065 246.797 164.849 246.591 164.486 246.213 Z M 165.598 247.309 C 165.785 247.192 166.052 247.357 166.322 247.865 C 166.176 247.893 165.96 247.687 165.598 247.309 Z M 166.709 248.404 C 166.897 248.287 167.163 248.453 167.433 248.961 C 167.288 248.988 167.07 248.782 166.709 248.404 Z M 167.82 249.5 C 168.008 249.383 168.274 249.548 168.544 250.057 C 168.399 250.084 168.181 249.878 167.82 249.5 Z M 168.938 250.596 C 169.121 250.481 169.391 250.646 169.68 251.149 C 169.538 251.177 169.313 250.972 168.938 250.596 Z M 170.052 251.662 C 170.235 251.561 170.502 251.735 170.79 252.243 C 170.65 252.263 170.426 252.051 170.052 251.662 Z M 171.164 252.758 C 171.346 252.657 171.614 252.831 171.901 253.338 C 171.761 253.359 171.538 253.147 171.164 252.758 Z M 162.264 244.022 C 162.452 243.904 162.718 244.07 162.988 244.578 C 162.843 244.606 162.626 244.4 162.264 244.022 Z M 173.386 254.949 C 173.568 254.848 173.836 255.022 174.124 255.53 C 173.984 255.55 173.761 255.338 173.386 254.949 Z M 174.497 256.045 C 174.68 255.944 174.947 256.118 175.235 256.625 C 175.095 256.646 174.872 256.434 174.497 256.045 Z M 175.609 257.14 C 175.791 257.039 176.059 257.214 176.346 257.721 C 176.206 257.742 175.982 257.529 175.609 257.14 Z M 176.72 258.236 C 176.902 258.135 177.17 258.309 177.458 258.817 C 177.318 258.837 177.094 258.625 176.72 258.236 Z M 177.831 259.332 C 178.013 259.231 178.281 259.405 178.569 259.912 C 178.429 259.933 178.205 259.721 177.831 259.332 Z M 178.942 260.427 C 179.124 260.327 179.392 260.501 179.68 261.008 C 179.54 261.029 179.317 260.816 178.942 260.427 Z M 180.053 261.523 C 180.236 261.422 180.503 261.596 180.791 262.104 C 180.651 262.125 180.427 261.912 180.053 261.523 Z M 181.185 262.616 C 181.352 262.524 181.632 262.7 181.976 263.188 C 181.849 263.205 181.601 262.998 181.185 262.616 Z M 1.351 266.784 C 1.372 266.777 1.33 266.792 1.351 266.784 Z M 172.275 253.853 C 172.457 253.752 172.725 253.927 173.013 254.434 C 172.873 254.455 172.649 254.242 172.275 253.853 Z M 152.263 234.161 C 152.451 234.043 152.717 234.209 152.987 234.717 C 152.842 234.745 152.625 234.539 152.263 234.161 Z M 153.374 235.256 C 153.562 235.139 153.829 235.305 154.099 235.813 C 153.953 235.84 153.736 235.634 153.374 235.256 Z M 151.152 233.065 C 151.339 232.948 151.606 233.113 151.876 233.622 C 151.731 233.649 151.514 233.443 151.152 233.065 Z M 154.485 236.352 C 154.673 236.235 154.94 236.4 155.21 236.909 C 155.064 236.936 154.848 236.73 154.485 236.352 Z M 155.597 237.448 C 155.784 237.33 156.051 237.496 156.321 238.004 C 156.175 238.032 155.959 237.826 155.597 237.448 Z M 156.708 238.543 C 156.896 238.426 157.162 238.592 157.432 239.1 C 157.287 239.127 157.07 238.921 156.708 238.543 Z M 157.819 239.639 C 158.007 239.522 158.273 239.687 158.544 240.196 C 158.398 240.223 158.181 240.017 157.819 239.639 Z M 158.93 240.735 C 159.118 240.617 159.385 240.783 159.655 241.291 C 159.509 241.319 159.292 241.113 158.93 240.735 Z M 160.041 241.83 C 160.229 241.713 160.496 241.879 160.766 242.387 C 160.62 242.414 160.404 242.208 160.041 241.83 Z M 144.484 226.491 C 144.672 226.374 144.939 226.539 145.209 227.047 C 145.063 227.075 144.847 226.869 144.484 226.491 Z M 161.153 242.926 C 161.34 242.809 161.607 242.974 161.877 243.483 C 161.732 243.51 161.515 243.304 161.153 242.926 Z M 150.04 231.969 C 150.228 231.852 150.495 232.017 150.765 232.526 C 150.619 232.553 150.403 232.347 150.04 231.969 Z M 129.843 211.947 C 132.465 214.22 134.838 216.601 137.369 219.302 C 134.883 217.1 132.238 214.578 129.843 211.947 Z M 336.003 229.468 C 338.38 231.072 340.261 232.675 342.143 234.277 C 339.997 235.551 337.899 237.825 335.699 237.925 C 326.139 238.365 316.549 238.176 306.97 238.203 C 303.751 238.212 300.15 238.163 300.066 233.938 C 299.97 229.072 304.093 229.595 307.322 229.56 C 316.716 229.458 326.112 229.489 336.003 229.468 Z M 317.96 201.2 C 312.056 207.024 306.383 212.53 300.824 218.146 C 298.638 220.356 296.694 221.733 293.869 218.977 C 291.24 216.412 292.52 214.383 294.475 212.437 C 301.9 205.046 309.237 197.557 316.977 190.499 C 318.269 189.321 321.395 190.098 323.673 189.972 C 323.432 192.076 323.707 194.431 322.809 196.213 C 321.873 198.072 319.808 199.378 317.96 201.2 Z M 243.725 273.612 C 242.814 272.809 241.973 272.059 241.124 271.33 C 240.274 270.602 239.417 269.894 238.475 269.175 C 235.355 266.071 223.164 253.443 219.993 250.084 C 216.192 246.26 212.493 242.582 208.854 238.968 C 205.216 235.354 201.637 231.805 198.075 228.24 C 195.15 225.311 193.542 222.06 193.276 218.931 C 193.009 215.802 194.084 212.795 196.522 210.353 C 199.276 207.595 202.441 206.312 205.709 206.483 C 208.977 206.654 212.347 208.28 215.512 211.338 C 219.196 214.898 222.886 218.452 226.577 222.005 C 230.269 225.558 233.961 229.108 237.652 232.662 C 240.696 235.719 253.035 248.028 256.242 251.168 C 257.067 251.958 257.81 252.706 258.552 253.456 C 259.295 254.206 260.037 254.959 260.858 255.758 C 264.161 258.904 267.383 262.005 270.619 265.142 C 273.855 268.28 277.106 271.456 280.464 274.751 C 285.523 279.864 290.493 284.838 295.395 289.765 C 300.297 294.692 305.131 299.572 309.916 304.498 C 312.925 307.594 314.413 310.819 314.429 313.934 C 314.446 317.05 312.991 320.056 310.116 322.715 C 307.518 325.119 304.576 326.204 301.547 325.972 C 298.519 325.739 295.405 324.189 292.462 321.323 C 288.191 317.161 283.945 312.974 279.697 308.79 C 275.448 304.605 271.197 300.424 266.916 296.272 C 266.224 295.601 265.431 295.03 264.611 294.486 C 263.792 293.943 262.945 293.426 262.144 292.863 C 259.121 289.691 256.098 286.518 253.039 283.318 C 249.981 280.118 246.888 276.892 243.725 273.612 Z M 276.032 110.55 C 276.011 110.556 276.053 110.542 276.032 110.55 Z M 282.699 110.55 C 282.678 110.556 282.72 110.542 282.699 110.55 Z M 289.38 110.557 C 289.4 110.551 289.359 110.565 289.38 110.557 Z M 296.047 110.557 C 296.067 110.551 296.026 110.565 296.047 110.557 Z M 302.701 110.55 C 302.68 110.556 302.722 110.542 302.701 110.55 Z M 309.368 110.55 C 309.347 110.556 309.39 110.542 309.368 110.55 Z M 316.038 110.559 C 316.045 110.58 316.031 110.539 316.038 110.559 Z M 29.693 166.532 C 29.693 166.531 29.781 166.485 29.739 166.51 C 29.696 166.534 29.694 166.533 29.693 166.532 Z M 142.162 110.047 C 142.186 110.088 142.135 110.007 142.135 110.006 C 142.136 110.006 142.136 110.005 142.162 110.047 Z M 149.353 110.55 C 149.331 110.556 149.374 110.542 149.353 110.55 Z M 156.031 110.546 C 156.038 110.567 156.023 110.527 156.031 110.546 Z M 162.687 110.55 C 162.666 110.556 162.708 110.542 162.687 110.55 Z M 169.368 110.557 C 169.388 110.551 169.347 110.565 169.368 110.557 Z M 176.022 110.55 C 176.001 110.556 176.043 110.542 176.022 110.55 Z M 182.689 110.55 C 182.668 110.556 182.71 110.542 182.689 110.55 Z M 189.37 110.557 C 189.39 110.551 189.349 110.565 189.37 110.557 Z M 196.035 110.546 C 196.042 110.567 196.027 110.527 196.035 110.546 Z M 269.364 110.55 C 269.343 110.556 269.386 110.542 269.364 110.55 Z M 209.37 110.546 C 209.376 110.567 209.362 110.527 209.37 110.546 Z M 216.026 110.55 C 216.005 110.556 216.047 110.542 216.026 110.55 Z M 222.704 110.546 C 222.711 110.567 222.697 110.527 222.704 110.546 Z M 229.361 110.55 C 229.339 110.556 229.382 110.542 229.361 110.55 Z M 236.028 110.55 C 236.007 110.556 236.049 110.542 236.028 110.55 Z M 242.697 110.559 C 242.691 110.539 242.704 110.58 242.697 110.559 Z M 249.365 110.559 C 249.371 110.58 249.358 110.539 249.365 110.559 Z M 256.03 110.55 C 256.009 110.556 256.051 110.542 256.03 110.55 Z M 262.71 110.557 C 262.73 110.551 262.689 110.565 262.71 110.557 Z M 202.705 110.557 C 202.725 110.551 202.683 110.565 202.705 110.557 Z M 283.314 185.127 C 283.339 192.728 283.209 199.835 283.229 206.943 C 283.238 210.15 282.864 213.171 278.758 212.955 C 274.958 212.754 274.337 209.887 274.397 206.645 C 274.503 200.993 274.402 195.339 274.306 189.222 C 274.307 184.62 273.989 180.415 274.656 176.37 C 274.946 174.606 277.254 173.165 278.645 171.578 C 280.152 173.227 282.387 174.655 282.981 176.578 C 283.748 179.058 283.201 181.931 283.314 185.127 Z M 122.191 198.022 C 121.898 194.963 121.597 191.994 121.343 189.068 C 121.09 186.142 120.884 183.26 120.783 180.374 C 120.736 179.033 120.892 177.685 121.102 176.278 C 121.313 174.871 121.58 173.405 121.754 171.829 C 124.842 161.953 129.508 153.825 135.982 147.731 C 142.456 141.636 150.739 137.575 161.063 135.832 C 168.993 134.493 176.504 134.807 183.486 136.884 C 190.468 138.961 196.92 142.801 202.733 148.514 C 209.738 155.399 216.737 162.289 223.777 169.2 C 230.817 176.112 237.899 183.045 245.067 190.015 C 248.825 193.649 252.213 197.38 255.001 201.46 C 257.79 205.541 259.979 209.971 261.338 215.003 C 263.042 221.31 263.444 227.389 262.609 233.332 C 261.774 239.275 259.702 245.082 256.459 250.842 C 253.143 247.865 240.78 235.516 237.819 232.255 C 238.842 228.202 238.814 224.448 237.871 221.022 C 236.928 217.596 235.07 214.499 232.432 211.759 C 227.742 206.887 222.913 202.144 218.025 197.396 C 213.137 192.649 208.189 187.897 203.26 183.006 C 200.374 180.063 197.561 177.168 194.748 174.338 C 191.934 171.507 189.12 168.74 186.23 166.051 C 182.162 162.267 177.658 160.014 172.972 159.285 C 168.286 158.556 163.419 159.351 158.625 161.662 C 153.891 163.944 150.413 167.108 148.229 171.14 C 146.044 175.171 145.153 180.07 145.592 185.819 C 146.523 188.1 147.233 190.479 148.082 192.669 C 148.931 194.86 149.92 196.863 151.408 198.393 C 159.163 206.363 167.005 214.255 174.92 222.075 C 182.834 229.895 190.821 237.644 198.867 245.329 C 201.718 248.052 204.954 249.95 208.518 250.854 C 212.082 251.758 215.975 251.668 220.137 250.414 C 221.446 251.763 225.301 255.366 227.765 257.903 C 232.053 262.318 236.593 267.37 238.208 269.225 C 234.378 270.345 230.245 271.564 226.485 272.578 C 222.725 273.591 218.959 274.563 215.101 275.513 C 215.035 275.511 214.971 275.509 214.909 275.508 C 214.57 275.501 214.285 275.506 213.992 275.51 C 213.645 275.514 213.288 275.516 212.819 275.492 C 207.459 275.09 202.462 274.034 197.756 272.348 C 193.05 270.662 188.636 268.347 184.443 265.428 C 184.159 265.116 183.875 264.803 183.535 264.455 C 183.194 264.107 182.798 263.722 182.291 263.265 C 181.961 262.983 181.727 262.797 181.531 262.674 C 181.336 262.55 181.18 262.488 181.009 262.451 C 181.009 262.451 181.009 262.42 180.989 262.361 C 180.97 262.302 180.931 262.215 180.853 262.103 C 180.678 261.85 180.524 261.679 180.371 261.564 C 180.218 261.449 180.066 261.388 179.896 261.354 C 179.896 261.354 179.896 261.324 179.877 261.265 C 179.857 261.207 179.819 261.12 179.742 261.008 C 179.567 260.755 179.412 260.584 179.259 260.469 C 179.106 260.354 178.954 260.293 178.784 260.259 C 178.784 260.259 178.784 260.228 178.765 260.17 C 178.746 260.111 178.707 260.024 178.631 259.912 C 178.456 259.659 178.301 259.488 178.148 259.373 C 177.995 259.258 177.843 259.197 177.673 259.163 C 177.673 259.163 177.673 259.132 177.654 259.074 C 177.635 259.015 177.596 258.928 177.52 258.817 C 177.345 258.563 177.19 258.393 177.037 258.277 C 176.884 258.162 176.732 258.101 176.562 258.067 C 176.562 258.067 176.562 258.037 176.543 257.978 C 176.524 257.92 176.485 257.833 176.409 257.721 C 176.234 257.468 176.079 257.297 175.926 257.182 C 175.773 257.066 175.621 257.006 175.451 256.972 C 175.451 256.972 175.451 256.941 175.432 256.883 C 175.412 256.824 175.374 256.737 175.297 256.625 C 175.122 256.372 174.968 256.201 174.815 256.086 C 174.662 255.971 174.51 255.91 174.34 255.876 C 174.34 255.876 174.34 255.845 174.321 255.787 C 174.301 255.728 174.263 255.642 174.186 255.53 C 174.011 255.276 173.856 255.106 173.703 254.99 C 173.55 254.875 173.398 254.814 173.228 254.78 C 173.228 254.78 173.228 254.749 173.209 254.691 C 173.19 254.632 173.151 254.546 173.075 254.434 C 172.9 254.181 172.745 254.01 172.592 253.895 C 172.439 253.779 172.287 253.719 172.117 253.685 C 172.117 253.685 172.117 253.654 172.098 253.596 C 172.079 253.537 172.04 253.45 171.964 253.338 C 171.789 253.085 171.634 252.914 171.481 252.799 C 171.328 252.683 171.176 252.623 171.006 252.589 C 171.006 252.589 171.006 252.558 170.987 252.5 C 170.967 252.441 170.929 252.355 170.852 252.243 C 170.677 251.989 170.523 251.819 170.37 251.703 C 170.217 251.588 170.065 251.527 169.895 251.493 C 169.895 251.493 169.895 251.463 169.876 251.405 C 169.856 251.347 169.818 251.261 169.741 251.149 C 169.566 250.898 169.411 250.731 169.257 250.62 C 169.103 250.51 168.95 250.457 168.779 250.433 C 168.779 250.433 168.779 250.395 168.759 250.329 C 168.739 250.263 168.7 250.169 168.621 250.057 C 168.447 249.803 168.294 249.634 168.142 249.523 C 167.989 249.413 167.837 249.36 167.667 249.336 C 167.667 249.336 167.667 249.299 167.647 249.233 C 167.628 249.167 167.588 249.074 167.51 248.961 C 167.336 248.707 167.183 248.539 167.031 248.428 C 166.878 248.317 166.726 248.264 166.555 248.24 C 166.555 248.24 166.555 248.203 166.535 248.137 C 166.516 248.071 166.477 247.978 166.399 247.865 C 166.225 247.611 166.072 247.443 165.919 247.332 C 165.766 247.221 165.614 247.168 165.444 247.144 C 165.444 247.144 165.444 247.107 165.424 247.041 C 165.405 246.976 165.366 246.882 165.288 246.77 C 165.114 246.516 164.961 246.347 164.808 246.236 C 164.655 246.126 164.503 246.073 164.333 246.049 C 164.333 246.049 164.333 246.012 164.313 245.946 C 164.294 245.88 164.254 245.786 164.176 245.674 C 164.003 245.42 163.85 245.252 163.697 245.141 C 163.544 245.03 163.392 244.976 163.222 244.953 C 163.222 244.953 163.222 244.916 163.202 244.85 C 163.183 244.784 163.143 244.69 163.065 244.578 C 162.891 244.324 162.738 244.156 162.586 244.045 C 162.433 243.934 162.281 243.88 162.111 243.857 C 162.111 243.857 162.111 243.82 162.091 243.754 C 162.072 243.689 162.032 243.595 161.954 243.483 C 161.78 243.229 161.627 243.06 161.474 242.949 C 161.321 242.839 161.169 242.786 160.999 242.762 C 160.999 242.762 160.999 242.725 160.979 242.659 C 160.96 242.593 160.921 242.5 160.843 242.387 C 160.669 242.133 160.516 241.965 160.363 241.854 C 160.21 241.743 160.058 241.69 159.888 241.666 C 159.888 241.666 159.888 241.629 159.868 241.563 C 159.849 241.497 159.809 241.404 159.731 241.291 C 159.558 241.037 159.405 240.869 159.252 240.758 C 159.099 240.647 158.947 240.594 158.777 240.57 C 158.777 240.57 158.777 240.533 158.757 240.467 C 158.738 240.402 158.698 240.308 158.62 240.196 C 158.447 239.942 158.293 239.773 158.141 239.662 C 157.988 239.552 157.837 239.499 157.666 239.475 C 157.666 239.475 157.666 239.438 157.646 239.372 C 157.627 239.306 157.587 239.212 157.509 239.1 C 157.336 238.846 157.182 238.678 157.03 238.567 C 156.877 238.456 156.725 238.402 156.554 238.379 C 156.554 238.379 156.554 238.342 156.535 238.276 C 156.515 238.21 156.476 238.117 156.398 238.004 C 156.225 237.75 156.071 237.582 155.918 237.471 C 155.766 237.36 155.614 237.307 155.443 237.283 C 155.443 237.283 155.443 237.246 155.424 237.18 C 155.404 237.115 155.365 237.021 155.287 236.909 C 155.114 236.655 154.96 236.486 154.807 236.375 C 154.655 236.265 154.503 236.212 154.332 236.188 C 154.332 236.188 154.332 236.151 154.312 236.085 C 154.293 236.019 154.254 235.926 154.175 235.813 C 154.002 235.559 153.849 235.391 153.696 235.28 C 153.544 235.169 153.392 235.116 153.221 235.092 C 153.221 235.092 153.221 235.055 153.201 234.989 C 153.182 234.923 153.143 234.83 153.064 234.717 C 152.891 234.463 152.737 234.295 152.585 234.184 C 152.432 234.073 152.281 234.02 152.11 233.996 C 152.11 233.996 152.11 233.959 152.09 233.893 C 152.071 233.828 152.032 233.734 151.953 233.622 C 151.78 233.368 151.626 233.199 151.473 233.088 C 151.321 232.978 151.169 232.925 150.998 232.901 C 150.998 232.901 150.998 232.863 150.979 232.798 C 150.959 232.732 150.92 232.638 150.842 232.526 C 150.669 232.272 150.515 232.103 150.362 231.992 C 150.21 231.882 150.058 231.829 149.887 231.805 C 149.887 231.805 149.887 231.768 149.867 231.702 C 149.848 231.636 149.809 231.543 149.73 231.43 C 149.557 231.176 149.404 231.008 149.251 230.897 C 149.099 230.786 148.947 230.733 148.776 230.709 C 148.776 230.709 148.776 230.672 148.756 230.606 C 148.737 230.541 148.698 230.447 148.619 230.335 C 148.446 230.081 148.292 229.912 148.14 229.801 C 147.987 229.691 147.836 229.638 147.665 229.614 C 147.665 229.614 147.665 229.576 147.645 229.511 C 147.626 229.445 147.587 229.351 147.508 229.239 C 147.335 228.985 147.181 228.816 147.029 228.705 C 146.876 228.595 146.724 228.542 146.553 228.518 C 146.553 228.518 146.553 228.481 146.534 228.415 C 146.514 228.349 146.475 228.256 146.397 228.143 C 146.224 227.889 146.07 227.721 145.917 227.61 C 145.765 227.499 145.613 227.446 145.442 227.422 C 145.442 227.422 145.442 227.385 145.423 227.319 C 145.403 227.253 145.364 227.16 145.286 227.047 C 145.113 226.793 144.959 226.625 144.806 226.514 C 144.654 226.404 144.502 226.351 144.331 226.327 C 144.331 226.327 144.331 226.289 144.311 226.224 C 144.292 226.158 144.253 226.064 144.174 225.952 C 144.001 225.698 143.848 225.529 143.695 225.418 C 143.543 225.308 143.391 225.255 143.22 225.231 C 143.22 225.231 143.22 225.194 143.2 225.128 C 143.181 225.062 143.142 224.969 143.063 224.856 C 142.89 224.602 142.736 224.434 142.584 224.323 C 142.431 224.212 142.28 224.159 142.109 224.135 C 142.109 224.135 142.109 224.098 142.089 224.032 C 142.07 223.966 142.031 223.873 141.952 223.76 C 141.779 223.506 141.625 223.338 141.472 223.227 C 141.32 223.116 141.168 223.063 140.997 223.039 C 140.997 223.039 140.997 223.002 140.978 222.936 C 140.958 222.871 140.919 222.777 140.841 222.665 C 140.668 222.411 140.514 222.242 140.361 222.131 C 140.209 222.021 140.057 221.968 139.886 221.944 C 139.886 221.944 139.886 221.907 139.866 221.841 C 139.847 221.775 139.808 221.682 139.729 221.569 C 139.556 221.315 139.403 221.147 139.25 221.036 C 139.098 220.925 138.946 220.872 138.775 220.848 C 138.775 220.848 138.775 220.811 138.755 220.745 C 138.736 220.679 138.697 220.586 138.618 220.473 C 138.445 220.219 138.291 220.051 138.139 219.94 C 137.986 219.829 137.835 219.776 137.664 219.752 C 137.664 219.752 137.664 219.719 137.635 219.647 C 137.607 219.574 137.55 219.462 137.436 219.302 C 136.137 217.952 134.894 216.681 133.68 215.451 C 132.466 214.22 131.28 213.03 130.094 211.839 C 128.8 209.596 127.506 207.352 126.194 205.064 C 124.883 202.776 123.554 200.443 122.191 198.022 Z M 333.98 277.635 C 338.878 282.434 343.621 287.266 348.364 292.035 C 353.107 296.804 357.849 301.51 362.745 306.055 C 370.922 313.645 375.914 321.933 378.035 330.953 C 380.155 339.973 379.404 349.724 376.091 360.238 C 371.451 369.118 365.739 376.323 358.613 381.419 C 351.487 386.515 342.948 389.501 332.653 389.944 C 326.282 390.219 320.29 389.363 314.695 387.409 C 309.1 385.455 303.904 382.402 299.125 378.282 C 296.765 376.247 294.504 374.099 292.232 371.899 C 289.96 369.699 287.677 367.446 285.272 365.199 C 279.989 359.993 274.863 354.748 269.725 349.578 C 264.587 344.408 259.438 339.312 254.112 334.403 C 247.618 328.421 243.098 321.748 240.289 314.447 C 237.481 307.146 236.384 299.217 236.74 290.722 C 236.811 289.034 237.284 287.363 237.913 285.628 C 238.542 283.893 239.325 282.096 240.015 280.155 C 240.71 278.849 241.313 277.677 241.904 276.6 C 242.496 275.524 243.075 274.541 243.725 273.612 C 246.888 276.892 249.981 280.118 253.019 283.368 C 256.058 286.619 259.042 289.893 261.985 293.268 C 261.225 297.672 261.551 301.616 262.816 305.197 C 264.082 308.778 266.286 311.996 269.281 314.947 C 276.543 322.102 283.795 329.264 291.051 336.423 C 298.308 343.582 305.567 350.737 312.842 357.877 C 318.184 363.119 324.441 365.832 330.627 366.001 C 336.814 366.171 342.93 363.798 347.99 358.868 C 352.713 354.268 354.921 348.117 354.669 341.851 C 354.416 335.586 351.702 329.205 346.579 324.144 C 339.523 317.174 332.433 310.238 325.362 303.283 C 318.291 296.328 311.24 289.354 304.261 282.31 C 300.949 278.968 297.389 276.609 293.451 275.274 C 289.514 273.94 285.2 273.629 280.381 274.383 C 277.064 271.272 273.835 268.188 270.649 265.119 C 267.463 262.05 264.322 258.996 261.18 255.941 C 270.287 251.398 279.291 249.23 288.126 249.655 C 296.961 250.081 305.627 253.099 314.056 258.927 C 316.523 260.633 318.744 262.685 320.897 264.833 C 323.05 266.981 325.134 269.226 327.325 271.316 C 328.389 272.332 329.442 273.359 330.534 274.409 C 331.626 275.458 332.758 276.53 333.98 277.635 Z M 250 3.474 C 111.929 1.555 0 110.373 0 246.526 C 0 382.678 111.929 494.607 250 496.526 C 388.071 498.445 500 389.627 500 253.475 C 500 117.322 388.071 5.393 250 3.474 Z" style="" transform="matrix(0.9999999999999999, 0, 0, 0.9999999999999999, 0, 0)"/>
</svg>