<?xml version="1.0" encoding="UTF-8" standalone="no"?>
<!DOCTYPE svg PUBLIC "-//W3C//DTD SVG 1.1//EN" "http://www.w3.org/Graphics/SVG/1.1/DTD/svg11.dtd">
<svg width="100%" height="100%" viewBox="0 0 600 600" version="1.1" xmlns="http://www.w3.org/2000/svg" xmlns:xlink="http://www.w3.org/1999/xlink" xml:space="preserve" xmlns:serif="http://www.serif.com/" style="fill-rule:evenodd;clip-rule:evenodd;">
    <path d="M600,600L0.004,600C0,400.026 0,200.05 0,0L600,0L600,600Z" style="fill:rgb(255,65,85);fill-rule:nonzero;"/>
    <path d="M375.334,166.794C362.545,142.324 350.444,117.742 337.631,93.537C331.402,81.771 324.479,71.899 313.424,63.563C320.552,65.982 327.087,67.097 333.83,70.761C355.276,82.414 373.157,98.722 389.224,116.818C400.236,129.22 410.074,142.687 420.074,155.951C422.926,159.734 424.893,164.328 426.587,168.807C429.059,175.344 427.01,178.519 420.179,177.649C410.993,176.479 401.917,174.262 392.887,172.102C387.081,170.713 381.443,168.617 375.334,166.794Z" style="fill:rgb(68,41,83);fill-rule:nonzero;stroke:rgb(68,42,83);stroke-width:1px;"/>
    <path d="M75.469,601C89.869,558.229 104.555,515.393 119.713,472.724C124.49,459.277 130.294,446.174 136.073,433.11C139.799,424.686 144.722,416.939 153.728,411.888C174.281,401.805 195.539,396.011 217.172,391.722C218.225,403.181 224.361,410.555 234.085,415.035C240.852,418.152 244.936,423.06 246.059,430.389C247.252,438.183 250.793,444.904 255.711,450.872C269.511,467.62 287.609,476.796 309.671,477.909C313.733,482.458 316.947,487.642 321.475,491.187C354.785,517.265 392.03,522.982 432.998,524.565C436.753,524.71 439.319,523.312 440.414,519.301C443.353,508.539 445.31,500.15 448.536,489.468C449.74,485.482 455.553,483.646 458.327,485.789C459.835,486.954 460.896,490.586 460.879,492.593C460.748,507.733 461.657,522.765 461.007,537.889C460.657,546.007 460.849,554.493 459.523,562.509C457.38,575.465 454.425,588.212 451.945,601.113C369.257,601.113 284.625,601 201.391,600.64C191.119,570.739 181.358,541.211 171.692,511.651C169.315,504.383 167.509,496.916 164.843,489.763C164.216,488.08 161.01,486.182 159.28,486.427C157.665,486.655 155.56,489.446 155.22,491.381C154.568,495.095 154.905,499.005 155.019,502.827C155.718,526.298 152.338,549.205 145.848,571.727C143.051,581.433 140.605,591.239 138,601L75.469,601Z" style="fill:rgb(84,62,91);fill-rule:nonzero;"/>
    <path d="M450.469,601C452.48,588.099 455.207,575.239 457.35,562.283C458.676,554.267 459.515,546.121 459.865,538.003C460.515,522.879 460.748,507.733 460.879,492.593C460.896,490.586 459.835,487.867 458.327,486.702C455.553,484.559 452.114,486.52 450.91,490.506C447.684,501.188 444.371,511.849 441.432,522.611C440.337,526.622 438,528.037 434.242,527.99C392.739,527.476 354.029,518.229 321.156,491.278C316.709,487.632 312.189,482.597 308.553,477.948C328.455,476.46 345.231,468.084 358.142,453.798C363.273,448.12 367.85,441.933 369.284,433.686C370.335,424.107 375.057,418.031 383.599,414.037C392.735,409.767 398.313,402.385 399.099,391.714C401.167,391.895 402.823,392.085 404.432,392.47C424.364,397.241 444.016,402.859 462.572,411.778C473.762,418.363 479.059,429.469 483.713,440.655C505.167,492.222 525.039,544.388 541.623,597.757C541.867,598.544 541.935,599.385 542.042,600.601C511.646,601 481.292,601 450.469,601Z" style="fill:rgb(102,83,100);fill-rule:nonzero;"/>
    <path d="M137.651,601.163C139.787,591.402 142.996,581.368 145.793,571.662C152.283,549.14 154.439,526.756 153.74,503.285C153.626,499.463 154.513,495.03 155.165,491.316C155.505,489.381 157.61,486.59 159.225,486.362C160.955,486.117 164.436,488.015 165.063,489.698C167.729,496.851 169.755,504.262 172.132,511.53C181.798,541.09 192.44,570.739 202.244,600.64C181.633,601 158.807,601.163 137.651,601.163Z" style="fill:rgb(66,42,83);fill-rule:nonzero;"/>
    <path d="M387.563,195.603C378.031,193.282 367.125,189.018 357.456,186.743C342.288,183.173 328.141,179.079 312.736,178.068C300.258,177.25 286.327,180.174 273.785,182.45C266.305,183.807 259.103,186.691 251.039,189.036C242.827,191.439 234.297,194.561 226.822,196.817C237.958,171.924 249.528,145.86 261.522,121.387C268.663,106.816 278.13,93.384 287.006,79.58C288.173,90.337 293.559,98.884 299.613,107.13C316.347,129.924 336.899,149.148 357.219,168.576C362.021,173.167 367.284,177.27 372.176,181.771C376.916,186.132 382.937,191.117 387.563,195.603Z" style="fill:rgb(67,41,83);fill-rule:nonzero;stroke:rgb(67,42,83);stroke-width:1px;"/>
    <path d="M388.441,195.933C404.26,201.92 420.694,205.164 437.462,206.897C440.766,207.238 444.088,207.403 447.565,208.131C435.851,217.568 423.972,226.524 411.708,235.538C406.167,238.15 401.012,240.703 395.465,243.329C391.398,244.639 387.721,245.877 383.718,246.895C377.298,246.075 371.2,245.524 365.113,244.868C338.885,242.042 313,237.334 288.578,227.135C277.004,222.302 265.915,215.999 255.306,209.26C245.85,203.254 244.324,197.126 250.544,188.846C258.234,186.556 266.305,183.807 273.785,182.45C286.327,180.174 299.177,176.851 311.655,177.67C327.06,178.681 342.288,183.173 357.456,186.743C367.125,189.018 376.546,192.346 386.343,195.363C387.219,195.661 387.83,195.797 388.441,195.933Z" style="fill:rgb(102,83,100);fill-rule:nonzero;stroke:rgb(102,83,100);stroke-width:1px;"/>
    <path d="M462.726,411.447C444.016,402.859 424.364,397.241 404.432,392.47C402.823,392.085 401.167,391.895 398.94,391.37C397.498,386.064 396.556,381.015 395.828,375.935C395.147,371.186 394.315,366.41 394.24,361.635C394.154,356.228 396.827,352.373 401.977,349.95C411.798,345.33 415.671,337.621 413.644,326.77C412.427,320.254 410.502,313.873 409.008,307.406C405.575,292.544 402.211,277.667 399.025,262.536C402.559,257.626 405.887,252.976 409.505,248.62C410.969,251.107 412.275,253.242 413.295,255.505C421.194,273.019 429.038,290.558 436.898,308.089C437.818,312.139 439.319,316.163 439.507,320.247C439.732,325.105 438.546,330.013 438.507,334.903C438.477,338.726 438.285,343.053 439.914,346.269C442.51,351.391 446.586,355.757 449.991,360.475C454.272,366.407 458.965,372.102 462.661,378.382C468.955,389.074 469.273,400.161 462.726,411.447Z" style="fill:rgb(190,199,246);fill-rule:nonzero;stroke:rgb(190,199,246);stroke-width:1px;"/>
    <path d="M217.31,391.617C195.707,396.343 174.281,401.805 154.006,411.629C146.644,399.928 147.329,388.138 154.477,376.852C158.817,369.999 164.162,363.786 168.967,357.221C171.709,353.474 174.696,349.81 176.766,345.702C178.092,343.07 179.245,339.146 178.23,336.755C174.456,327.865 176.477,319.482 178.885,310.95C179.066,310.311 179.184,309.654 179.578,308.323C188.918,287.821 198.012,268.003 207.352,248.478C210.781,253.409 214.354,258.101 217.516,263.189C216.002,271.312 214.432,279.005 212.556,286.582C209.475,299.029 205.717,311.309 202.665,323.762C199.754,335.636 203.844,345.535 212.841,349.894C220.497,353.603 222.799,357.881 221.433,366.223C220.063,374.587 218.745,383.264 217.31,391.617Z" style="fill:rgb(190,198,245);fill-rule:nonzero;"/>
    <path d="M437.165,306.877C429.038,289.558 421.194,272.019 413.295,254.505C412.275,252.242 410.969,250.107 409.534,247.256C410.214,242.559 411.154,238.519 412.094,234.479C423.972,225.524 435.851,216.568 447.929,207.335C451.353,205.737 454.49,204.121 457.816,203.154C467.09,200.457 474.315,204.043 475.751,213.527C476.973,221.588 477.136,230.234 475.61,238.208C470.464,265.091 458.126,288.291 437.165,306.877Z" style="fill:rgb(50,21,75);fill-rule:nonzero;"/>
    <path d="M208.106,248.185C199.012,268.003 189.918,287.821 180.625,307.93C157.998,288.107 145.018,262.913 140.655,233.278C139.87,227.948 139.972,222.27 140.864,216.955C142.929,204.652 150.646,200.593 162.275,205.035C163.977,205.686 165.608,206.525 167.608,207.468C180.07,216.874 192.196,226.09 204.59,235.822C205.94,240.287 207.023,244.236 208.106,248.185Z" style="fill:rgb(50,21,75);fill-rule:nonzero;"/>
    <path d="M386.343,195.363C381.452,190.716 376.916,186.132 372.176,181.771C367.284,177.27 362.021,173.167 357.219,168.576C336.899,149.148 316.347,129.924 299.613,107.13C293.559,98.884 288.173,90.337 287.275,79.379C290.768,75.102 294.263,70.97 298.177,67.283C302.358,63.344 307.48,61.875 313.8,63.654C325.273,72.185 333.402,82.771 339.631,94.537C352.444,118.742 364.545,143.324 376.939,167.75C380.699,176.899 384.46,186.048 388.331,195.565C387.83,195.797 387.219,195.661 386.343,195.363Z" style="fill:rgb(84,62,91);fill-rule:nonzero;stroke:rgb(84,62,91);stroke-width:1px;"/>
    <path d="M217.172,391.722C218.577,382.932 220.063,374.587 221.433,366.223C222.799,357.881 220.497,353.603 212.841,349.894C203.844,345.535 199.754,335.636 202.665,323.762C205.717,311.309 209.475,299.029 212.556,286.582C214.432,279.005 215.612,271.256 217.369,262.873C218.494,255.863 219.354,249.564 220.214,243.265C223.685,244.477 227.156,245.232 230.816,247.085C230.761,248.695 230.41,250.108 230.288,251.093C228.192,268.084 225.854,285.053 224.173,302.086C223.44,309.511 223.554,317.372 228.431,323.641C231.766,327.929 236.28,331.291 240.185,335.149C243.25,338.178 246.636,341.019 249.086,344.502C253.601,350.922 252.349,358.121 250.723,365.221C246.917,381.841 255.544,393.826 272.136,396.128C291.721,398.846 306.477,408.03 312.634,428.155C315.022,435.96 320.237,441.98 327.865,445.032C340.017,449.894 350.999,446.384 361.204,439.171C363.764,437.362 366.803,434.621 369.425,432.9C368.215,440.837 363.273,448.12 358.142,453.798C345.231,468.084 329.404,476.78 309.417,477.939C287.013,477.254 269.511,467.62 255.711,450.872C250.793,444.904 247.252,438.183 246.059,430.389C244.936,423.06 240.852,418.152 234.085,415.035C224.361,410.555 218.225,403.181 217.172,391.722Z" style="fill:rgb(217,225,253);fill-rule:nonzero;"/>
    <path d="M369.151,432.679C367.629,438.259 363.764,437.362 361.204,439.171C350.999,446.384 340.017,449.894 327.865,445.032C320.237,441.98 315.022,435.96 312.634,428.155C306.477,408.03 291.721,398.846 272.136,396.128C255.544,393.826 246.917,381.841 250.723,365.221C252.349,358.121 253.601,350.922 249.086,344.502C246.636,341.019 243.25,338.178 240.185,335.149C236.28,331.291 231.766,327.929 228.431,323.641C223.554,317.372 223.44,309.511 224.173,302.086C225.854,285.053 228.192,268.084 230.288,251.093C230.41,250.108 230.761,248.259 231.1,246.842C235.906,247.716 240.616,249.931 245.615,251.924C246.241,254.552 246.262,256.634 246.969,258.447C251.51,270.09 256.201,281.674 260.968,293.591C267.238,288.58 272.817,283.836 279.076,278.991C287.068,273.632 295.31,273.194 303.014,278.437C306.744,280.976 309.62,280.969 313.376,278.479C320.686,273.632 328.403,273.323 335.765,278.507C340.78,282.038 345.502,285.983 350.391,289.697C351.853,290.808 353.435,291.762 354.675,292.596C357.41,287.078 360.294,282.362 362.145,277.272C365.185,268.911 367.555,260.307 370.208,251.805C374.614,250.365 379.02,248.926 383.735,247.301C387.721,245.877 391.398,244.639 395.502,243.818C396.893,250.422 397.856,256.609 398.819,262.796C402.211,277.667 405.575,292.544 409.008,307.406C410.502,313.873 412.427,320.254 413.644,326.77C415.671,337.621 411.798,345.33 401.977,349.95C396.827,352.373 394.154,356.228 394.24,361.635C394.315,366.41 395.147,371.186 395.828,375.935C396.556,381.015 397.498,386.064 398.506,391.47C398.313,402.385 392.735,409.767 383.599,414.037C375.057,418.031 370.165,423.266 369.114,432.845M288.082,304.768C279.894,306.081 271.688,307.294 263.538,308.81C262.269,309.046 260.296,310.657 260.282,311.654C260.181,318.931 259.774,326.325 260.882,333.462C262.05,340.994 268.458,343.971 275.642,341.106C278.672,339.898 281.322,337.738 284.142,336.006C289.078,332.975 293.056,327.722 299.779,326.798C309.537,324.57 318.556,326.019 326.742,332.032C330.622,334.882 334.465,337.862 338.651,340.198C347.198,344.968 354.614,341.478 355.815,331.877C356.569,325.85 355.984,319.664 356.187,313.556C356.301,310.147 354.561,308.877 351.513,308.392C340.689,306.671 329.915,304.58 319.053,303.159C308.984,301.841 298.878,302.093 288.082,304.768Z" style="fill:rgb(233,239,255);fill-rule:nonzero;stroke:rgb(233,239,255);stroke-width:1px;"/>
    <path d="M399.863,262.908C398.694,256.981 397.051,250.359 396.051,243.683C401.17,240.64 406.167,237.816 411.708,235.204C411.154,239.185 410.214,243.559 409.244,247.963C405.887,252.976 403.397,257.998 399.863,262.908Z" style="fill:rgb(249,187,145);fill-rule:nonzero;stroke:rgb(249,187,145);stroke-width:1px;"/>
    <path d="M369.769,251.755C367.555,260.307 365.185,268.911 362.145,277.272C360.294,282.362 357.41,287.078 354.675,292.596C353.435,291.762 351.853,290.808 350.391,289.697C345.502,285.983 340.78,282.038 335.765,278.507C328.403,273.323 320.686,273.632 313.376,278.479C309.62,280.969 306.744,280.976 303.014,278.437C295.31,273.194 287.411,273.642 279.404,278.561C278.046,270.973 276.906,263.277 275.9,256.018C298.662,257.686 321.556,258.563 344.256,255.735C352.652,254.69 360.975,253.066 369.769,251.755Z" style="fill:rgb(248,208,180);fill-rule:nonzero;"/>
    <path d="M276.114,256.099C277.475,263.513 278.348,270.638 279.369,278.336C273.462,283.511 267.238,288.58 260.968,293.591C256.201,281.674 251.51,270.09 246.969,258.447C246.262,256.634 246.275,253.311 245.929,250.911C255.734,251.948 265.948,254.465 276.114,256.099Z" style="fill:rgb(249,187,145);fill-rule:nonzero;"/>
    <path d="M220.331,243.167C219.72,249.676 218.426,256.95 217.322,263.51C213.896,259.133 210.781,253.409 207.352,248.478C206.023,244.236 204.986,239.784 203.941,235.397C209.241,237.421 214.822,240.497 220.331,243.167Z" style="fill:rgb(246,171,113);fill-rule:nonzero;"/>
    <path d="M227.544,196.096C235.353,193.695 243.1,190.53 250.949,188.219C245.467,196.352 245.85,203.254 255.306,209.26C265.915,215.999 277.004,222.302 288.578,227.135C313,237.334 338.885,242.042 365.113,244.868C371.2,245.524 377.298,246.075 383.409,247.08C379.02,248.926 374.614,250.365 369.769,251.755C360.975,253.066 352.652,254.69 344.256,255.735C321.556,258.563 298.795,258.124 275.678,256.301C265.512,254.667 255.7,253.189 245.607,251.482C240.616,249.931 235.906,248.609 230.912,247.094C227.156,245.689 223.685,244.477 219.965,243.055C214.456,240.385 209.195,237.924 203.628,235.385C191.196,226.09 179.002,216.28 166.876,207.064C181.896,204.783 197.016,203.282 211.987,200.714C217.165,199.826 222.141,197.766 227.544,196.096Z" style="fill:rgb(86,63,92);fill-rule:nonzero;"/>
    <path d="M288.968,304.799C298.878,302.093 308.984,301.841 319.053,303.159C329.915,304.58 340.689,306.671 351.513,308.392C354.561,308.877 356.301,310.147 356.187,313.556C355.984,319.664 356.569,325.85 355.815,331.877C354.614,341.478 347.198,344.968 338.651,340.198C334.465,337.862 330.622,334.882 326.742,332.032C318.556,326.019 309.537,324.57 299.294,326.512C295.528,319.083 292.248,311.941 288.968,304.799Z" style="fill:rgb(249,209,181);fill-rule:nonzero;"/>
    <path d="M289.154,304.783C292.877,311.941 296.012,318.956 299.362,326.44C293.415,329.264 289.078,332.975 284.142,336.006C281.322,337.738 278.672,339.898 275.642,341.106C268.458,343.971 262.05,340.994 260.882,333.462C259.774,326.325 260.181,318.931 260.282,311.654C260.296,310.657 262.269,309.046 263.538,308.81C271.688,307.294 280.523,306.081 289.154,304.783Z" style="fill:rgb(249,187,145);fill-rule:nonzero;"/>
    <g transform="matrix(0.995504,0,0,1.00012,0.108186,-0.909355)">
        <rect x="-0.109" y="0.909" width="602.71" height="599.927" style="fill:rgb(208,49,67);"/>
    </g>
    <g transform="matrix(0.360329,0,0,0.360329,-46.0848,-62.082)">
        <g transform="matrix(-1.50138,0.0825995,0.0825995,1.50138,2334.39,-328.504)">
            <path d="M769.023,888.389C761.772,920.6 739.101,960.678 767.115,1023.69C769.295,1028.62 774.007,1031.95 779.38,1032.36C784.753,1032.78 789.92,1030.21 792.83,1025.67C795.928,1020.76 798.884,1017.24 801.376,1014.75C802.469,1013.7 804.095,1013.44 805.459,1014.1C806.823,1014.75 807.64,1016.18 807.51,1017.69C805.421,1042.42 811.086,1060.92 817.655,1079.23C819.431,1084.2 823.84,1087.76 829.072,1088.44C834.304,1089.12 839.477,1086.81 842.467,1082.47C844.462,1079.49 846.032,1078.57 846.902,1078.29C847.092,1078.27 847.285,1078.32 847.436,1078.44C847.587,1078.56 847.685,1078.73 847.707,1078.92C855.148,1140.93 938.764,1163.1 971.366,1198.62C974.387,1201.97 978.783,1203.72 983.274,1203.39C987.766,1203.05 991.85,1200.66 994.341,1196.9C1015.02,1165.61 1057.68,1149.02 1076.39,1090.71C1076.65,1089.87 1077.45,1089.31 1078.33,1089.35C1079.21,1089.39 1079.95,1090.01 1080.15,1090.87L1080.15,1090.87C1081.26,1095.43 1085,1098.88 1089.64,1099.62C1094.28,1100.35 1098.9,1098.23 1101.36,1094.22C1130.64,1046.17 1147.16,1041.77 1148.49,963.356C1148.51,962.474 1149.12,961.715 1149.98,961.506C1150.84,961.297 1151.73,961.691 1152.15,962.466C1154.89,967.434 1160.53,970.055 1166.09,968.943C1171.65,967.832 1175.85,963.244 1176.47,957.606C1180.49,921.619 1170.77,895.131 1162.76,867.592C1150.01,870.899 1136.86,873.438 1123.28,875.338C1115.06,930.784 1085.23,1004 980.374,1025.63C1000.55,1014.13 1011.76,1003.61 1019.36,988.091C971.298,1007.09 866.6,1021.34 822.069,879.878C808.855,880.267 783.512,883.422 769.023,888.389Z" style="fill:white;"/>
        </g>
        <g transform="matrix(-1.4933,0.176178,0.176178,1.4933,2231.68,-363.364)">
            <path d="M650.357,899.289C643.558,903.27 634.948,902.298 629.208,896.9C623.467,891.502 621.967,882.968 625.524,875.937C650.986,825.82 708.196,768.181 802.48,742.573C791.645,741.468 780.506,742.184 772.023,743.187C769.287,743.513 766.593,742.314 765.004,740.063C763.414,737.812 763.186,734.872 764.408,732.402C785.89,685.252 801.586,591.165 796.482,519.199C790.341,537.022 785.383,554.421 783.362,561.726C782.728,564.061 781.258,566.081 779.232,567.404C770.925,572.495 747.092,585.29 717.211,584.743C709.303,584.633 702.415,579.324 700.294,571.705C698.174,564.087 701.33,555.982 708.044,551.803C738.594,532.911 762.86,498.112 799.415,463.58C852.025,413.88 931.371,466.562 1055.18,668.716C1057.41,672.35 1056.52,677.08 1053.13,679.66C1015.64,707.817 938.314,691.714 902.194,718.498C902.054,718.612 902.02,718.813 902.115,718.968C902.211,719.122 902.406,719.181 902.571,719.106C944.44,701.272 1011.53,724.995 1059.8,700.287C1066.89,696.675 1075.01,695.64 1082.78,697.358C1122.97,706.073 1176,713.423 1249.16,706.29C1256.49,705.594 1263.49,709.48 1266.78,716.069C1270.07,722.657 1268.96,730.589 1263.99,736.026C1182.48,825.615 1079.33,833.336 934.459,833.513C805.376,833.671 711.532,863.867 650.357,899.289Z" style="fill:white;"/>
        </g>
    </g>
</svg>
