<?xml version="1.0" encoding="utf-8"?>
<svg viewBox="0 0 600 600" xmlns="http://www.w3.org/2000/svg">
  <path fill="#FF4155" opacity="1.000000" stroke="none" d="M 600 600 C 580.727 600 24.676 600 0.004 600 C 0 400.026 0 200.05 0 0 C 199.947 0 399.902 0 600 0 C 600 199.95 600 399.975 600 600 Z"/>
  <path fill="#442953" opacity="1.000000" d="M 375.334 166.794 C 362.545 142.324 350.444 117.742 337.631 93.537 C 331.402 81.771 324.479 71.899 313.424 63.563 C 320.552 65.982 327.087 67.097 333.83 70.761 C 355.276 82.414 373.157 98.722 389.224 116.818 C 400.236 129.22 410.074 142.687 420.074 155.951 C 422.926 159.734 424.893 164.328 426.587 168.807 C 429.059 175.344 427.01 178.519 420.179 177.649 C 410.993 176.479 401.917 174.262 392.887 172.102 C 387.081 170.713 381.443 168.617 375.334 166.794 Z" style="stroke: rgb(68, 42, 83);"/>
  <path fill="#543E5B" opacity="1.000000" stroke="none" d="M 75.469 601 C 89.869 558.229 104.555 515.393 119.713 472.724 C 124.49 459.277 130.294 446.174 136.073 433.11 C 139.799 424.686 144.722 416.939 153.728 411.888 C 174.281 401.805 195.539 396.011 217.172 391.722 C 218.225 403.181 224.361 410.555 234.085 415.035 C 240.852 418.152 244.936 423.06 246.059 430.389 C 247.252 438.183 250.793 444.904 255.711 450.872 C 269.511 467.62 287.609 476.796 309.671 477.909 C 313.733 482.458 316.947 487.642 321.475 491.187 C 354.785 517.265 392.03 522.982 432.998 524.565 C 436.753 524.71 439.319 523.312 440.414 519.301 C 443.353 508.539 445.31 500.15 448.536 489.468 C 449.74 485.482 455.553 483.646 458.327 485.789 C 459.835 486.954 460.896 490.586 460.879 492.593 C 460.748 507.733 461.657 522.765 461.007 537.889 C 460.657 546.007 460.849 554.493 459.523 562.509 C 457.38 575.465 454.425 588.212 451.945 601.113 C 369.257 601.113 284.625 601 201.391 600.64 C 191.119 570.739 181.358 541.211 171.692 511.651 C 169.315 504.383 167.509 496.916 164.843 489.763 C 164.216 488.08 161.01 486.182 159.28 486.427 C 157.665 486.655 155.56 489.446 155.22 491.381 C 154.568 495.095 154.905 499.005 155.019 502.827 C 155.718 526.298 152.338 549.205 145.848 571.727 C 143.051 581.433 140.605 591.239 138 601 C 117.312 601 96.625 601 75.469 601 Z"/>
  <path fill="#665364" opacity="1.000000" stroke="none" d="M 450.469 601 C 452.48 588.099 455.207 575.239 457.35 562.283 C 458.676 554.267 459.515 546.121 459.865 538.003 C 460.515 522.879 460.748 507.733 460.879 492.593 C 460.896 490.586 459.835 487.867 458.327 486.702 C 455.553 484.559 452.114 486.52 450.91 490.506 C 447.684 501.188 444.371 511.849 441.432 522.611 C 440.337 526.622 438 528.037 434.242 527.99 C 392.739 527.476 354.029 518.229 321.156 491.278 C 316.709 487.632 312.189 482.597 308.553 477.948 C 328.455 476.46 345.231 468.084 358.142 453.798 C 363.273 448.12 367.85 441.933 369.284 433.686 C 370.335 424.107 375.057 418.031 383.599 414.037 C 392.735 409.767 398.313 402.385 399.099 391.714 C 401.167 391.895 402.823 392.085 404.432 392.47 C 424.364 397.241 444.016 402.859 462.572 411.778 C 473.762 418.363 479.059 429.469 483.713 440.655 C 505.167 492.222 525.039 544.388 541.623 597.757 C 541.867 598.544 541.935 599.385 542.042 600.601 C 511.646 601 481.292 601 450.469 601 Z"/>
  <path fill="#422A53" opacity="1.000000" stroke="none" d="M 137.651 601.163 C 139.787 591.402 142.996 581.368 145.793 571.662 C 152.283 549.14 154.439 526.756 153.74 503.285 C 153.626 499.463 154.513 495.03 155.165 491.316 C 155.505 489.381 157.61 486.59 159.225 486.362 C 160.955 486.117 164.436 488.015 165.063 489.698 C 167.729 496.851 169.755 504.262 172.132 511.53 C 181.798 541.09 192.44 570.739 202.244 600.64 C 181.633 601 158.807 601.163 137.651 601.163 Z"/>
  <path fill="#432953" opacity="1.000000" d="M 387.563 195.603 C 378.031 193.282 367.125 189.018 357.456 186.743 C 342.288 183.173 328.141 179.079 312.736 178.068 C 300.258 177.25 286.327 180.174 273.785 182.45 C 266.305 183.807 259.103 186.691 251.039 189.036 C 242.827 191.439 234.297 194.561 226.822 196.817 C 237.958 171.924 249.528 145.86 261.522 121.387 C 268.663 106.816 278.13 93.384 287.006 79.58 C 288.173 90.337 293.559 98.884 299.613 107.13 C 316.347 129.924 336.899 149.148 357.219 168.576 C 362.021 173.167 367.284 177.27 372.176 181.771 C 376.916 186.132 382.937 191.117 387.563 195.603 Z" style="paint-order: stroke; stroke: rgb(67, 42, 83);"/>
  <path fill="#665364" opacity="1.000000" d="M 388.441 195.933 C 404.26 201.92 420.694 205.164 437.462 206.897 C 440.766 207.238 444.088 207.403 447.565 208.131 C 435.851 217.568 423.972 226.524 411.708 235.538 C 406.167 238.15 401.012 240.703 395.465 243.329 C 391.398 244.639 387.721 245.877 383.718 246.895 C 377.298 246.075 371.2 245.524 365.113 244.868 C 338.885 242.042 313 237.334 288.578 227.135 C 277.004 222.302 265.915 215.999 255.306 209.26 C 245.85 203.254 244.324 197.126 250.544 188.846 C 258.234 186.556 266.305 183.807 273.785 182.45 C 286.327 180.174 299.177 176.851 311.655 177.67 C 327.06 178.681 342.288 183.173 357.456 186.743 C 367.125 189.018 376.546 192.346 386.343 195.363 C 387.219 195.661 387.83 195.797 388.441 195.933 Z" style="paint-order: stroke; stroke: rgb(102, 83, 100);"/>
  <path fill="#BEC7F6" opacity="1.000000" d=" M462.725769,411.446960 C444.016479,402.859375 424.363739,397.240845 404.431824,392.470367 C402.822723,392.085236 401.166992,391.894958 398.940155,391.370483 C397.498383,386.064240 396.555817,381.015015 395.827576,375.935120 C395.146729,371.185791 394.315063,366.409851 394.239746,361.634735 C394.154480,356.228394 396.826569,352.372925 401.976990,349.949890 C411.797729,345.329590 415.671234,337.620941 413.644257,326.770020 C412.427094,320.254089 410.501740,313.873291 409.007721,307.405640 C405.574799,292.544250 402.211060,277.666931 399.025391,262.535675 C402.559326,257.625732 405.887177,252.976166 409.505066,248.619568 C410.968872,251.106796 412.274689,253.241516 413.295441,255.504791 C421.194122,273.018890 429.037689,290.557831 436.898376,308.089050 C437.818146,312.139404 439.318542,316.162872 439.507355,320.247040 C439.731934,325.104980 438.545654,330.012726 438.507141,334.903107 C438.477051,338.726440 438.284637,343.053162 439.914459,346.269318 C442.509949,351.390961 446.586029,355.756958 449.991058,360.474945 C454.272095,366.406769 458.964905,372.102234 462.661194,378.381683 C468.955048,389.073975 469.273346,400.161285 462.725769,411.446960 z" style="paint-order: stroke; stroke: rgb(190, 199, 246);"/>
  <path fill="#BEC6F5" opacity="1.000000" stroke="none" d="M 217.31 391.617 C 195.707 396.343 174.281 401.805 154.006 411.629 C 146.644 399.928 147.329 388.138 154.477 376.852 C 158.817 369.999 164.162 363.786 168.967 357.221 C 171.709 353.474 174.696 349.81 176.766 345.702 C 178.092 343.07 179.245 339.146 178.23 336.755 C 174.456 327.865 176.477 319.482 178.885 310.95 C 179.066 310.311 179.184 309.654 179.578 308.323 C 188.918 287.821 198.012 268.003 207.352 248.478 C 210.781 253.409 214.354 258.101 217.516 263.189 C 216.002 271.312 214.432 279.005 212.556 286.582 C 209.475 299.029 205.717 311.309 202.665 323.762 C 199.754 335.636 203.844 345.535 212.841 349.894 C 220.497 353.603 222.799 357.881 221.433 366.223 C 220.063 374.587 218.745 383.264 217.31 391.617 Z"/>
  <path fill="#32154B" opacity="1.000000" stroke="none" d="M 437.165 306.877 C 429.038 289.558 421.194 272.019 413.295 254.505 C 412.275 252.242 410.969 250.107 409.534 247.256 C 410.214 242.559 411.154 238.519 412.094 234.479 C 423.972 225.524 435.851 216.568 447.929 207.335 C 451.353 205.737 454.49 204.121 457.816 203.154 C 467.09 200.457 474.315 204.043 475.751 213.527 C 476.973 221.588 477.136 230.234 475.61 238.208 C 470.464 265.091 458.126 288.291 437.165 306.877 Z"/>
  <path fill="#32154B" opacity="1.000000" stroke="none" d="M 208.106 248.185 C 199.012 268.003 189.918 287.821 180.625 307.93 C 157.998 288.107 145.018 262.913 140.655 233.278 C 139.87 227.948 139.972 222.27 140.864 216.955 C 142.929 204.652 150.646 200.593 162.275 205.035 C 163.977 205.686 165.608 206.525 167.608 207.468 C 180.07 216.874 192.196 226.09 204.59 235.822 C 205.94 240.287 207.023 244.236 208.106 248.185 Z"/>
  <path fill="#543E5B" opacity="1.000000" d=" M386.343201,195.363297 C381.452179,190.716034 376.916321,186.132324 372.175781,181.771011 C367.283905,177.270447 362.020599,173.166565 357.219116,168.576019 C336.898621,149.148209 316.347412,129.923569 299.613129,107.130257 C293.559204,98.884369 288.172638,90.336784 287.274963,79.378998 C290.768127,75.102203 294.263000,70.970428 298.176758,67.283272 C302.357697,63.344383 307.479736,61.874680 313.799652,63.654259 C325.273285,72.184975 333.402191,82.770737 339.630676,94.536720 C352.443848,118.741646 364.544861,143.323578 376.938965,167.750351 C380.699371,176.899002 384.459808,186.047638 388.330750,195.564850 C387.830353,195.797119 387.219452,195.660828 386.343201,195.363297 z" style="paint-order: stroke; stroke: rgb(84, 62, 91);"/>
  <path fill="#D9E1FD" opacity="1.000000" stroke="none" d="M 217.172 391.722 C 218.577 382.932 220.063 374.587 221.433 366.223 C 222.799 357.881 220.497 353.603 212.841 349.894 C 203.844 345.535 199.754 335.636 202.665 323.762 C 205.717 311.309 209.475 299.029 212.556 286.582 C 214.432 279.005 215.612 271.256 217.369 262.873 C 218.494 255.863 219.354 249.564 220.214 243.265 C 223.685 244.477 227.156 245.232 230.816 247.085 C 230.761 248.695 230.41 250.108 230.288 251.093 C 228.192 268.084 225.854 285.053 224.173 302.086 C 223.44 309.511 223.554 317.372 228.431 323.641 C 231.766 327.929 236.28 331.291 240.185 335.149 C 243.25 338.178 246.636 341.019 249.086 344.502 C 253.601 350.922 252.349 358.121 250.723 365.221 C 246.917 381.841 255.544 393.826 272.136 396.128 C 291.721 398.846 306.477 408.03 312.634 428.155 C 315.022 435.96 320.237 441.98 327.865 445.032 C 340.017 449.894 350.999 446.384 361.204 439.171 C 363.764 437.362 366.803 434.621 369.425 432.9 C 368.215 440.837 363.273 448.12 358.142 453.798 C 345.231 468.084 329.404 476.78 309.417 477.939 C 287.013 477.254 269.511 467.62 255.711 450.872 C 250.793 444.904 247.252 438.183 246.059 430.389 C 244.936 423.06 240.852 418.152 234.085 415.035 C 224.361 410.555 218.225 403.181 217.172 391.722 Z"/>
  <path fill="#E9EFFF" opacity="1.000000" d="M 369.151 432.679 C 367.629 438.259 363.764 437.362 361.204 439.171 C 350.999 446.384 340.017 449.894 327.865 445.032 C 320.237 441.98 315.022 435.96 312.634 428.155 C 306.477 408.03 291.721 398.846 272.136 396.128 C 255.544 393.826 246.917 381.841 250.723 365.221 C 252.349 358.121 253.601 350.922 249.086 344.502 C 246.636 341.019 243.25 338.178 240.185 335.149 C 236.28 331.291 231.766 327.929 228.431 323.641 C 223.554 317.372 223.44 309.511 224.173 302.086 C 225.854 285.053 228.192 268.084 230.288 251.093 C 230.41 250.108 230.761 248.259 231.1 246.842 C 235.906 247.716 240.616 249.931 245.615 251.924 C 246.241 254.552 246.262 256.634 246.969 258.447 C 251.51 270.09 256.201 281.674 260.968 293.591 C 267.238 288.58 272.817 283.836 279.076 278.991 C 287.068 273.632 295.31 273.194 303.014 278.437 C 306.744 280.976 309.62 280.969 313.376 278.479 C 320.686 273.632 328.403 273.323 335.765 278.507 C 340.78 282.038 345.502 285.983 350.391 289.697 C 351.853 290.808 353.435 291.762 354.675 292.596 C 357.41 287.078 360.294 282.362 362.145 277.272 C 365.185 268.911 367.555 260.307 370.208 251.805 C 374.614 250.365 379.02 248.926 383.735 247.301 C 387.721 245.877 391.398 244.639 395.502 243.818 C 396.893 250.422 397.856 256.609 398.819 262.796 C 402.211 277.667 405.575 292.544 409.008 307.406 C 410.502 313.873 412.427 320.254 413.644 326.77 C 415.671 337.621 411.798 345.33 401.977 349.95 C 396.827 352.373 394.154 356.228 394.24 361.635 C 394.315 366.41 395.147 371.186 395.828 375.935 C 396.556 381.015 397.498 386.064 398.506 391.47 C 398.313 402.385 392.735 409.767 383.599 414.037 C 375.057 418.031 370.165 423.266 369.114 432.845 M 288.082 304.768 C 279.894 306.081 271.688 307.294 263.538 308.81 C 262.269 309.046 260.296 310.657 260.282 311.654 C 260.181 318.931 259.774 326.325 260.882 333.462 C 262.05 340.994 268.458 343.971 275.642 341.106 C 278.672 339.898 281.322 337.738 284.142 336.006 C 289.078 332.975 293.056 327.722 299.779 326.798 C 309.537 324.57 318.556 326.019 326.742 332.032 C 330.622 334.882 334.465 337.862 338.651 340.198 C 347.198 344.968 354.614 341.478 355.815 331.877 C 356.569 325.85 355.984 319.664 356.187 313.556 C 356.301 310.147 354.561 308.877 351.513 308.392 C 340.689 306.671 329.915 304.58 319.053 303.159 C 308.984 301.841 298.878 302.093 288.082 304.768 Z" style="stroke: rgb(233, 239, 255);"/>
  <path fill="#F9BB91" opacity="1.000000" d="M 399.863 262.908 C 398.694 256.981 397.051 250.359 396.051 243.683 C 401.17 240.64 406.167 237.816 411.708 235.204 C 411.154 239.185 410.214 243.559 409.244 247.963 C 405.887 252.976 403.397 257.998 399.863 262.908 Z" style="stroke: rgb(249, 187, 145); paint-order: stroke;"/>
  <path fill="#F8D0B4" opacity="1.000000" stroke="none" d="M 369.769 251.755 C 367.555 260.307 365.185 268.911 362.145 277.272 C 360.294 282.362 357.41 287.078 354.675 292.596 C 353.435 291.762 351.853 290.808 350.391 289.697 C 345.502 285.983 340.78 282.038 335.765 278.507 C 328.403 273.323 320.686 273.632 313.376 278.479 C 309.62 280.969 306.744 280.976 303.014 278.437 C 295.31 273.194 287.411 273.642 279.404 278.561 C 278.046 270.973 276.906 263.277 275.9 256.018 C 298.662 257.686 321.556 258.563 344.256 255.735 C 352.652 254.69 360.975 253.066 369.769 251.755 Z"/>
  <path fill="#F9BB91" opacity="1.000000" stroke="none" d="M 276.114 256.099 C 277.475 263.513 278.348 270.638 279.369 278.336 C 273.462 283.511 267.238 288.58 260.968 293.591 C 256.201 281.674 251.51 270.09 246.969 258.447 C 246.262 256.634 246.275 253.311 245.929 250.911 C 255.734 251.948 265.948 254.465 276.114 256.099 Z"/>
  <path fill="#F6AB71" opacity="1.000000" stroke="none" d="M 220.331 243.167 C 219.72 249.676 218.426 256.95 217.322 263.51 C 213.896 259.133 210.781 253.409 207.352 248.478 C 206.023 244.236 204.986 239.784 203.941 235.397 C 209.241 237.421 214.822 240.497 220.331 243.167 Z"/>
  <path fill="#563F5C" opacity="1.000000" stroke="none" d="M 227.544 196.096 C 235.353 193.695 243.1 190.53 250.949 188.219 C 245.467 196.352 245.85 203.254 255.306 209.26 C 265.915 215.999 277.004 222.302 288.578 227.135 C 313 237.334 338.885 242.042 365.113 244.868 C 371.2 245.524 377.298 246.075 383.409 247.08 C 379.02 248.926 374.614 250.365 369.769 251.755 C 360.975 253.066 352.652 254.69 344.256 255.735 C 321.556 258.563 298.795 258.124 275.678 256.301 C 265.512 254.667 255.7 253.189 245.607 251.482 C 240.616 249.931 235.906 248.609 230.912 247.094 C 227.156 245.689 223.685 244.477 219.965 243.055 C 214.456 240.385 209.195 237.924 203.628 235.385 C 191.196 226.09 179.002 216.28 166.876 207.064 C 181.896 204.783 197.016 203.282 211.987 200.714 C 217.165 199.826 222.141 197.766 227.544 196.096 Z"/>
  <path fill="#F9D1B5" opacity="1.000000" stroke="none" d=" M288.968079,304.798737 C298.878082,302.093292 308.984344,301.840576 319.053162,303.158569 C329.915131,304.580383 340.688538,306.670868 351.512970,308.391907 C354.561005,308.876556 356.300568,310.146881 356.187256,313.555756 C355.984222,319.664246 356.569427,325.850159 355.815216,331.877350 C354.613800,341.478485 347.197968,344.968292 338.650970,340.198456 C334.464722,337.862244 330.621796,334.881836 326.741882,332.031799 C318.555908,326.018524 309.537445,324.570282 299.293701,326.511536 C295.528320,319.082672 292.248199,311.940704 288.968079,304.798737 z"/>
  <path fill="#F9BB91" opacity="1.000000" stroke="none" d="M 289.154 304.783 C 292.877 311.941 296.012 318.956 299.362 326.44 C 293.415 329.264 289.078 332.975 284.142 336.006 C 281.322 337.738 278.672 339.898 275.642 341.106 C 268.458 343.971 262.05 340.994 260.882 333.462 C 259.774 326.325 260.181 318.931 260.282 311.654 C 260.296 310.657 262.269 309.046 263.538 308.81 C 271.688 307.294 280.523 306.081 289.154 304.783 Z"/>
</svg>