<svg fill="none" height="34" viewBox="0 0 124 34" width="124" xmlns="http://www.w3.org/2000/svg"><g fill="#fff"><path d="m26.2543 6.96724c-2.0063-.91902-4.1515-1.58695-6.3942-1.96724-.2754.48755-.5972 1.14329-.819 1.66497-2.3841-.35103-4.7463-.35103-7.0865 0-.2219-.52168-.551-1.17742-.8289-1.66497-2.24507.38029-4.39272 1.05066-6.39895 1.97212-4.046649 5.98708-5.143625 11.82548-4.595136 17.58088 2.683936 1.9624 5.284976 3.1544 7.842166 3.9345.63135-.8508 1.19448-1.7552 1.67958-2.7083-.92388-.3437-1.80878-.7679-2.64492-1.2603.22186-.1609.43878-.3291.64842-.5022 5.09974 2.3354 10.64074 2.3354 15.67944 0 .2121.1731.4291.3413.6485.5022-.8386.4948-1.7259.919-2.6499 1.2627.4852.9507 1.0458 1.8576 1.6797 2.7083 2.5596-.78 5.1631-1.9721 7.847-3.9369.6436-6.672-1.0994-12.4568-4.6073-17.58576zm-15.9062 14.04616c-1.53084 0-2.78631-1.3992-2.78631-3.1032s1.22862-3.1056 2.78631-3.1056c1.5577 0 2.8132 1.3992 2.7864 3.1056.0024 1.704-1.2287 3.1032-2.7864 3.1032zm10.297 0c-1.5309 0-2.7863-1.3992-2.7863-3.1032s1.2286-3.1056 2.7863-3.1056 2.8131 1.3992 2.7863 3.1056c0 1.704-1.2286 3.1032-2.7863 3.1032z"/><path d="m41.6483 10.9923h6.6551c1.6041 0 2.9593.2511 4.071.7508 1.1093.4998 1.9405 1.197 2.4914 2.0891.5508.8923.8288 1.9137.8288 3.0643 0 1.1262-.2876 2.1476-.8629 3.0618-.5752.9166-1.4506 1.6406-2.628 2.1744-1.1773.5339-2.6352.802-4.3782.802h-6.1772zm6.1091 8.9075c1.0796 0 1.9109-.2706 2.4914-.8094.5801-.5411.8701-1.2773.8701-2.211 0-.8654-.2584-1.5553-.7752-2.072-.5168-.5169-1.2991-.7777-2.3451-.7777h-2.0818v5.8701z"/><path d="m65.6578 22.92c-.9214-.2388-1.7527-.585-2.4914-1.0408v-2.8327c.5585.4315 1.3068.7874 2.2454 1.0677.9382.2779 1.8452.4169 2.7229.4169.4094 0 .7191-.0536.9286-.1609.2095-.1072.3145-.2364.3145-.3851 0-.1707-.0561-.3121-.1707-.4267-.1145-.1145-.3365-.2096-.6654-.29l-2.0479-.4608c-1.1726-.273-2.0038-.6508-2.4986-1.136-.4947-.4826-.7411-1.1165-.7411-1.9014 0-.6606.2148-1.2335.6486-1.7235.4315-.4899 1.0456-.8678 1.8428-1.1335.7972-.2682 1.7286-.4022 2.7986-.4022.9555 0 1.8308.1023 2.628.3071.7968.2048 1.455.4656 1.9794.785v2.679c-.5364-.3193-1.1505-.5704-1.8528-.7605-.6994-.1877-1.419-.2804-2.1596-.2804-1.0705 0-1.6041.1829-1.6041.5461 0 .1706.083.2974.2484.3827.1658.0853.4707.1731.9117.2657l1.7067.3072c1.1141.1925 1.9453.5314 2.4913 1.0141.5461.4827.8188 1.1969.8188 2.1427 0 1.0361-.4506 1.8575-1.3552 2.467-.9046.6094-2.1865.9141-3.849.9141-.9779-.0024-1.9286-.1218-2.8499-.3608z"/><path d="m77.7392 22.5616c-.9775-.4778-1.7162-1.1262-2.2085-1.9453-.4923-.819-.7411-1.7405-.7411-2.7643 0-1.0239.2559-1.9405.7679-2.7474s1.2627-1.4407 2.2527-1.9014c.9894-.4607 2.1716-.6898 3.5493-.6898 1.7062 0 3.1228.3583 4.2488 1.075v3.1227c-.3974-.273-.8605-.4949-1.3897-.6655-.5288-.1706-1.0944-.256-1.6989-.256-1.0581 0-1.8845.1926-2.4818.5802-.5969.3876-.897.8922-.897 1.5187 0 .6143.2901 1.1165.8706 1.5114.5801.3925 1.4209.5899 2.5254.5899.5676 0 1.1285-.0828 1.6817-.2461.5513-.1658 1.0264-.3682 1.4238-.607v3.0203c-1.2507.7508-2.7009 1.1262-4.3514 1.1262-1.3893-.0049-2.5743-.2438-3.5518-.7216z"/><path d="m89.8648 22.5618c-.9851-.4777-1.7359-1.1311-2.2526-1.9623-.5168-.8313-.7776-1.7576-.7776-2.7815 0-1.0238.2584-1.938.7776-2.74.5191-.802 1.2651-1.4309 2.2449-1.8868.9775-.4558 2.1453-.6825 3.4981-.6825 1.3533 0 2.5206.2267 3.4981.6825.9779.4559 1.7239 1.0799 2.2358 1.8771.5116.7971.7675 1.7113.7675 2.7473 0 1.0238-.2559 1.9502-.7675 2.7814-.5119.8313-1.2603 1.4846-2.2454 1.9624-.9847.4778-2.1476.7167-3.4909.7167-1.3432 0-2.5057-.2365-3.488-.7143zm5.185-3.0276c.4142-.4144.6237-.9629.6237-1.6455 0-.6825-.2071-1.2262-.6237-1.6284-.4146-.4047-.9803-.607-1.697-.607-.7287 0-1.2991.2023-1.7162.607-.4142.4047-.6213.9459-.6213 1.6284 0 .6826.2071 1.2311.6213 1.6455.4147.4144.9875.624 1.7162.624.7167-.0024 1.2824-.2096 1.697-.624z"/><path d="m110.11 13.1425v3.6858c-.434-.2852-.994-.4266-1.69-.4266-.909 0-1.611.2754-2.098.8264-.49.5509-.734 1.409-.734 2.5693v3.1398h-4.181v-9.9825h4.096v3.1739c.227-1.1603.594-2.016 1.102-2.5693.504-.5509 1.158-.8264 1.952-.8264.602 0 1.119.1365 1.553.4096z"/><path d="m124 10.6511v12.2861h-4.181v-2.2354c-.353.841-.89 1.4821-1.611 1.9209-.722.4364-1.614.6558-2.672.6558-.946 0-1.77-.2292-2.474-.6899-.705-.4607-1.249-1.0921-1.631-1.8941-.38-.802-.573-1.7089-.573-2.723-.012-1.0458.19-1.9842.607-2.8155.415-.8313 1.002-1.4797 1.758-1.9454.755-.4655 1.618-.6996 2.586-.6996 1.992 0 3.328.8654 4.01 2.5938v-4.4537zm-4.805 8.8148c.427-.4145.639-.9532.639-1.6114 0-.6362-.207-1.1555-.622-1.5528-.414-.3973-.982-.5972-1.696-.5972-.705 0-1.268.2023-1.69.607-.421.4046-.631.9287-.631 1.5771 0 .6485.21 1.1775.631 1.587.422.4095.978.6143 1.673.6143.704-.0024 1.269-.2096 1.696-.624z"/><path d="m59.2172 14.0176c1.151 0 2.0844-.8382 2.0844-1.8721 0-1.034-.9334-1.8722-2.0844-1.8722s-2.0844.8382-2.0844 1.8722c0 1.0339.9334 1.8721 2.0844 1.8721z"/><path d="m57.1309 15.3073c1.2775.5509 2.8619.5753 4.1687 0v7.6837h-4.1687z"/></g></svg>