<?xml version="1.0" encoding="utf-8"?>
<svg viewBox="0 0 500 500" xmlns="http://www.w3.org/2000/svg">
  <linearGradient id="a" gradientTransform="matrix(5.208334, 0, 0, -5.422988, 0.002087, 521.147095)" gradientUnits="userSpaceOnUse" x1="28" x2="28" y1="90" y2="50">
    <stop offset="0" stop-color="#fff" stop-opacity=".4"/>
    <stop offset="1" stop-color="#fff" stop-opacity="0"/>
  </linearGradient>
  <linearGradient id="b" gradientTransform="matrix(5.208334, 0, 0, -5.422988, 1010.418732, 1085.137817)" gradientUnits="userSpaceOnUse" x1="-178.075" x2="-111.501" y1="163.402" y2="124.966">
    <stop offset="0" stop-color="#fff"/>
    <stop offset="0" stop-color="#a85dc3"/>
    <stop offset="0.15" stop-color="#9863c5"/>
    <stop offset="0.43" stop-color="#6f74cb"/>
    <stop offset="0.83" stop-color="#2d90d5"/>
    <stop offset="1" stop-color="#0f9dda"/>
  </linearGradient>
  <linearGradient id="gradient-0" gradientTransform="matrix(5.208334, 0, 0, -5.422988, 1010.418732, 1085.137817)" gradientUnits="userSpaceOnUse" x1="-178.075" x2="-111.501" y1="163.402" y2="124.966">
    <stop offset="0" stop-color="#fff"/>
    <stop offset="0" stop-color="#a85dc3"/>
    <stop offset="0.15" stop-color="#9863c5"/>
    <stop offset="0.43" stop-color="#6f74cb"/>
    <stop offset="0.83" stop-color="#2d90d5"/>
    <stop offset="1" stop-color="#0f9dda"/>
  </linearGradient>
  <g>
    <path clip-rule="evenodd" d="M 416.667 271.692 C 416.667 292.706 412.598 312.703 405.233 330.879 C 397.868 349.054 387.207 365.408 374.023 379.135 C 360.84 392.862 345.133 403.962 327.677 411.631 C 310.221 419.299 291.016 423.536 270.833 423.536 C 251.172 423.536 232.389 419.469 215.234 412.097 C 198.079 404.725 182.552 394.049 169.401 380.83 C 156.25 367.612 145.475 351.851 137.825 334.311 C 130.176 316.77 125.651 297.451 125 277.114 L 125 278.47 L 125 279.826 L 125 281.182 L 125 282.538 C 125 305.043 129.362 326.464 137.256 345.936 C 145.15 365.408 156.576 382.931 170.703 397.641 C 184.831 412.351 201.661 424.248 220.362 432.467 C 239.063 440.686 259.636 445.228 281.25 445.228 C 302.865 445.228 323.438 440.686 342.139 432.467 C 360.84 424.248 377.67 412.351 391.797 397.641 C 405.925 382.931 417.35 365.408 425.244 345.936 C 433.138 326.464 437.5 305.043 437.5 282.538 C 437.5 260.033 433.138 238.612 425.244 219.14 C 417.35 199.668 405.925 182.145 391.797 167.435 C 377.67 152.725 360.84 140.828 342.139 132.609 C 323.438 124.39 302.865 119.848 281.25 119.848 C 280.86 119.848 280.437 119.848 279.997 119.848 C 279.558 119.848 279.102 119.848 278.646 119.848 C 278.191 119.848 277.735 119.848 277.295 119.848 C 276.856 119.848 276.433 119.848 276.042 119.848 C 295.574 120.526 314.128 125.237 330.974 133.202 C 347.82 141.167 362.956 152.386 375.651 166.079 C 388.347 179.772 398.601 195.939 405.681 213.801 C 412.761 231.663 416.667 251.22 416.667 271.692 Z" fill="#131928" fill-rule="evenodd" opacity=".2"/>
    <path clip-rule="evenodd" d="M 250 54.772 C 224.089 54.772 199.414 60.229 176.978 70.101 C 154.541 79.972 134.343 94.259 117.383 111.917 C 100.423 129.576 86.702 150.607 77.222 173.968 C 67.741 197.329 62.5 223.021 62.5 250 C 62.5 252.983 61.914 255.83 60.856 258.422 C 59.798 261.015 58.269 263.354 56.381 265.32 C 54.493 267.286 52.247 268.879 49.757 269.981 C 47.267 271.082 44.532 271.692 41.667 271.692 C 38.803 271.692 36.068 271.082 33.578 269.981 C 31.088 268.879 28.842 267.286 26.953 265.32 C 25.065 263.354 23.535 261.015 22.477 258.422 C 21.419 255.83 20.833 252.983 20.833 250 C 20.833 217.056 27.246 185.67 38.843 157.123 C 50.439 128.576 67.22 102.867 87.956 81.277 C 108.692 59.687 133.382 42.215 160.799 30.14 C 188.216 18.066 218.36 11.389 250 11.389 C 252.865 11.389 255.6 11.999 258.09 13.1 C 260.58 14.202 262.826 15.795 264.714 17.76 C 266.602 19.726 268.132 22.065 269.19 24.658 C 270.247 27.25 270.833 30.097 270.833 33.08 C 270.833 36.062 270.247 38.909 269.19 41.502 C 268.132 44.095 266.602 46.434 264.714 48.4 C 262.826 50.366 260.58 51.959 258.09 53.06 C 255.6 54.162 252.865 54.772 250 54.772 Z" fill="url(#a)" fill-rule="evenodd"/>
    <ellipse cx="250" cy="250" fill="#000b25" rx="250" ry="250"/>
    <path d="M 181.25 107.374 L 198.047 107.374 L 214.844 107.374 L 231.641 107.374 L 248.438 107.374 L 248.438 114.56 L 248.438 121.746 L 248.438 128.932 L 248.438 136.117 L 231.641 136.117 L 214.844 136.117 L 198.047 136.117 L 181.25 136.117 L 181.25 128.932 L 181.25 121.746 L 181.25 114.56 Z" fill="#fff"/>
    <path d="M 429.167 268.438 C 428.646 244.577 422.852 221.055 413.054 199.176 C 403.256 177.298 389.454 157.063 372.917 139.777 C 356.381 122.491 337.11 108.154 316.374 98.071 C 295.639 87.988 273.438 82.158 251.042 81.887 C 228.386 81.616 205.892 86.904 184.823 96.47 C 163.754 106.037 144.109 119.882 127.149 136.727 C 110.189 153.572 95.915 173.417 85.588 194.982 C 75.261 216.547 68.881 239.832 67.709 263.557 C 67.188 274.675 66.993 283.284 67.668 290.062 C 68.344 296.841 69.89 301.789 72.852 305.585 C 75.814 309.382 80.192 312.025 86.531 314.194 C 92.871 316.364 101.172 318.058 111.979 319.956 C 113.151 332.429 113.574 343.546 113.086 353.748 C 112.598 363.95 111.198 373.237 108.724 382.049 C 106.251 390.862 102.703 399.199 97.917 407.503 C 93.132 415.807 87.11 424.077 79.688 432.753 C 80.73 433.703 81.739 434.618 82.739 435.516 C 83.74 436.415 84.733 437.296 85.742 438.177 C 86.751 439.059 87.777 439.94 88.843 440.838 C 89.909 441.736 91.016 442.651 92.188 443.6 C 92.448 443.329 92.708 443.058 92.961 442.779 C 93.213 442.499 93.457 442.211 93.685 441.906 C 93.913 441.601 94.125 441.278 94.312 440.931 C 94.499 440.583 94.662 440.211 94.792 439.804 C 101.433 430.314 107.227 422.213 112.134 414.714 C 117.041 407.215 121.062 400.318 124.154 393.234 C 127.247 386.151 129.411 378.88 130.608 370.636 C 131.804 362.391 132.032 353.172 131.25 342.19 C 130.729 334.869 130.827 328.531 131.738 323.168 C 132.65 317.804 134.375 313.415 137.109 309.992 C 139.844 306.569 143.587 304.111 148.535 302.611 C 153.483 301.111 159.636 300.569 167.188 300.976 C 168.36 315.618 168.49 328.395 167.66 340.182 C 166.83 351.968 165.04 362.764 162.37 373.44 C 159.701 384.117 156.153 394.675 151.807 405.987 C 147.462 417.299 142.319 429.366 136.459 443.059 C 135.548 445.092 134.636 447.092 133.708 449.057 C 132.78 451.023 131.836 452.955 130.859 454.853 C 129.883 456.751 128.874 458.615 127.816 460.445 C 126.758 462.275 125.651 464.072 124.479 465.834 C 125.912 466.648 127.344 467.461 128.776 468.266 C 130.209 469.071 131.641 469.868 133.073 470.647 C 134.506 471.427 135.938 472.189 137.37 472.926 C 138.803 473.663 140.235 474.375 141.667 475.053 C 143.23 472.342 144.694 469.562 146.07 466.715 C 147.445 463.868 148.731 460.954 149.935 457.971 C 151.14 454.989 152.263 451.938 153.312 448.82 C 154.362 445.701 155.339 442.515 156.25 439.261 C 159.636 426.788 162.891 415.874 165.943 405.706 C 168.994 395.538 171.843 386.116 174.414 376.626 C 176.986 367.136 179.281 357.578 181.226 347.138 C 183.171 336.699 184.766 325.379 185.938 312.364 C 186.329 307.348 186.98 303.111 188.07 299.654 C 189.161 296.197 190.691 293.519 192.839 291.621 C 194.987 289.723 197.754 288.605 201.318 288.266 C 204.883 287.927 209.245 288.367 214.583 289.587 C 216.407 305.45 216.928 319.448 216.39 332.48 C 215.853 345.512 214.258 357.579 211.849 369.577 C 209.44 381.575 206.217 393.505 202.425 406.266 C 198.633 419.027 194.271 432.618 189.583 447.938 C 188.542 451.463 187.435 454.92 186.263 458.318 C 185.092 461.716 183.855 465.055 182.553 468.343 C 181.251 471.631 179.884 474.867 178.451 478.062 C 177.019 481.256 175.522 484.409 173.959 487.527 C 175.392 487.934 176.824 488.34 178.256 488.747 C 179.688 489.153 181.121 489.56 182.553 489.967 C 183.985 490.374 185.417 490.781 186.85 491.188 C 188.282 491.594 189.714 492.001 191.146 492.408 C 192.058 490.51 192.969 488.577 193.872 486.62 C 194.776 484.662 195.671 482.68 196.55 480.68 C 197.429 478.68 198.292 476.663 199.13 474.638 C 199.968 472.613 200.781 470.58 201.562 468.547 C 207.292 453.227 212.468 439.499 216.944 426.509 C 221.42 413.52 225.196 401.267 228.125 388.896 C 231.055 376.525 233.139 364.035 234.229 350.57 C 235.32 337.106 235.418 322.668 234.376 306.399 C 233.985 300.434 234.245 295.689 235.132 292.037 C 236.019 288.385 237.533 285.826 239.649 284.233 C 241.765 282.64 244.483 282.013 247.779 282.224 C 251.075 282.436 254.949 283.487 259.376 285.249 C 260.027 296.909 259.994 306.67 259.66 315.457 C 259.327 324.244 258.692 332.057 258.138 339.818 C 257.585 347.58 257.113 355.29 257.104 363.874 C 257.096 372.458 257.552 381.914 258.854 393.167 C 259.896 402.928 261.329 412.384 263.127 421.544 C 264.926 430.704 267.091 439.567 269.597 448.142 C 272.104 456.717 274.952 465.004 278.117 473.011 C 281.283 481.019 284.766 488.747 288.542 496.203 C 289.975 495.932 291.374 495.661 292.75 495.39 C 294.125 495.119 295.476 494.848 296.81 494.576 C 298.145 494.305 299.463 494.034 300.773 493.763 C 302.084 493.492 303.386 493.221 304.688 492.95 C 298.048 479.257 293.132 464.683 289.511 449.278 C 285.89 433.874 283.562 417.639 282.097 400.624 C 280.632 383.609 280.03 365.815 279.859 347.291 C 279.688 328.768 279.949 309.517 280.209 289.587 C 285.939 288.367 290.626 287.859 294.451 288.105 C 298.276 288.35 301.238 289.35 303.517 291.146 C 305.796 292.943 307.391 295.535 308.481 298.967 C 309.571 302.399 310.157 306.669 310.417 311.821 C 311.068 323.345 311.166 333.073 311.084 341.885 C 311.003 350.697 310.743 358.595 310.677 366.458 C 310.612 374.322 310.743 382.151 311.443 390.828 C 312.143 399.505 313.413 409.029 315.626 420.281 C 316.798 425.976 318.197 431.534 319.833 436.949 C 321.468 442.364 323.34 447.634 325.456 452.752 C 327.572 457.87 329.932 462.835 332.544 467.64 C 335.157 472.444 338.021 477.087 341.146 481.561 C 342.579 481.019 344.044 480.442 345.525 479.841 C 347.006 479.239 348.504 478.612 350.001 477.968 C 351.499 477.324 352.996 476.663 354.477 475.994 C 355.958 475.324 357.422 474.647 358.854 473.969 C 349.349 462.445 342.643 450.311 337.939 437.457 C 333.236 424.603 330.534 411.029 329.036 396.624 C 327.539 382.219 327.246 366.984 327.36 350.808 C 327.475 334.632 327.996 317.516 328.126 299.349 C 337.371 301.247 344.109 302.704 349.064 304.331 C 354.02 305.958 357.194 307.754 359.31 310.33 C 361.426 312.906 362.484 316.262 363.208 321.007 C 363.933 325.752 364.323 331.887 365.104 340.021 C 366.146 350.325 367.09 358.391 368.083 365.323 C 369.076 372.254 370.118 378.05 371.355 383.812 C 372.592 389.574 374.024 395.302 375.798 402.098 C 377.572 408.893 379.688 416.757 382.292 426.789 C 382.683 428.009 383.301 429.534 384.107 431.297 C 384.912 433.059 385.905 435.059 387.044 437.228 C 388.184 439.398 389.469 441.736 390.861 444.177 C 392.252 446.617 393.75 449.16 395.312 451.736 C 396.615 450.787 397.884 449.837 399.13 448.888 C 400.375 447.938 401.596 446.989 402.8 446.04 C 404.005 445.091 405.193 444.142 406.373 443.193 C 407.553 442.244 408.725 441.296 409.896 440.347 C 403.125 425.841 397.656 413.503 393.416 402.504 C 389.177 391.506 386.166 381.846 384.31 372.695 C 382.455 363.544 381.755 354.901 382.137 345.936 C 382.52 336.971 383.985 327.685 386.459 317.246 C 396.485 316.432 404.232 315.551 410.197 314.042 C 416.162 312.534 420.345 310.399 423.242 307.077 C 426.14 303.755 427.751 299.247 428.573 292.994 C 429.395 286.74 429.428 278.742 429.167 268.438 Z" fill="url(#b)"/>
    <path d="M 102.083 266.811 C 99.479 255.016 99.968 241.628 102.726 228.096 C 105.485 214.564 110.515 200.888 116.992 188.516 C 123.47 176.145 131.397 165.079 139.95 156.766 C 148.503 148.454 157.683 142.896 166.667 141.54 C 161.459 151.573 156.185 161.775 150.863 172.095 C 145.541 182.416 140.17 192.855 134.766 203.362 C 129.363 213.869 123.926 224.444 118.474 235.036 C 113.021 245.627 107.552 256.236 102.083 266.811 Z" fill="url(#b)" style="fill: url('#gradient-0');"/>
    <path d="M 102.083 266.811 C 99.479 255.016 99.968 241.628 102.726 228.096 C 105.485 214.564 110.515 200.888 116.992 188.516 C 123.47 176.145 131.397 165.079 139.95 156.766 C 148.503 148.454 157.683 142.896 166.667 141.54 C 161.459 151.573 156.185 161.775 150.863 172.095 C 145.541 182.416 140.17 192.855 134.766 203.362 C 129.363 213.869 123.926 224.444 118.474 235.036 C 113.021 245.627 107.552 256.236 102.083 266.811 Z" fill="#fff"/>
    <path clip-rule="evenodd" d="M 250 153.47 C 247.917 153.47 245.866 153.64 243.864 153.97 C 241.862 154.301 239.909 154.792 238.021 155.436 C 236.133 156.08 234.31 156.877 232.568 157.818 C 230.827 158.758 229.167 159.843 227.604 161.063 L 228.256 161.063 L 228.907 161.063 L 229.558 161.063 L 230.209 161.063 C 232.944 161.063 235.548 161.639 237.916 162.681 C 240.284 163.723 242.416 165.231 244.206 167.096 C 245.996 168.96 247.445 171.18 248.446 173.646 C 249.447 176.111 250 178.823 250 181.67 C 250 184.517 249.447 187.161 248.446 189.525 C 247.445 191.889 245.997 193.974 244.206 195.702 C 242.416 197.431 240.284 198.803 237.916 199.743 C 235.548 200.684 232.944 201.192 230.209 201.192 C 227.996 201.192 225.847 200.819 223.837 200.125 C 221.827 199.43 219.955 198.413 218.295 197.125 C 216.635 195.838 215.186 194.279 214.022 192.5 C 212.859 190.72 211.98 188.721 211.459 186.551 C 211.329 187.094 211.231 187.67 211.158 188.271 C 211.085 188.873 211.036 189.5 211.003 190.144 C 210.971 190.788 210.954 191.449 210.946 192.118 C 210.938 192.787 210.938 193.464 210.938 194.142 C 210.938 199.701 212.045 205.022 214.039 209.878 C 216.032 214.733 218.913 219.122 222.461 222.817 C 226.01 226.511 230.225 229.511 234.888 231.587 C 239.551 233.663 244.662 234.816 250 234.816 C 255.339 234.816 260.449 233.663 265.112 231.587 C 269.776 229.511 273.991 226.512 277.539 222.817 C 281.087 219.122 283.968 214.733 285.962 209.878 C 287.955 205.022 289.062 199.701 289.062 194.142 C 289.062 188.584 287.955 183.263 285.962 178.408 C 283.968 173.553 281.087 169.163 277.539 165.469 C 273.991 161.774 269.776 158.775 265.112 156.699 C 260.449 154.622 255.339 153.47 250 153.47 Z" fill="#1d1d1b" fill-rule="evenodd"/>
    <circle cx="404.804" cy="302.048" fill="#fff" r="17.344" transform="matrix(1.111111, 0, 0, 1.156904, -219.053406, -169.398163)"/>
  </g>
</svg>