<?xml version="1.0" encoding="utf-8"?>
<svg viewBox="0 0 500 500" xmlns="http://www.w3.org/2000/svg">
  <linearGradient id="a" gradientUnits="userSpaceOnUse" x1="48" x2="117.5" y1="0" y2="69.5">
    <stop offset="0" stop-color="#c395fc"/>
    <stop offset="1" stop-color="#4f65f5"/>
  </linearGradient>
  <linearGradient id="b" gradientUnits="userSpaceOnUse" x1="28" x2="28" y1="8" y2="48">
    <stop offset="0" stop-color="#fff" stop-opacity=".4"/>
    <stop offset="1" stop-color="#fff" stop-opacity="0"/>
  </linearGradient>
  <g clip-rule="evenodd" fill-rule="evenodd" transform="matrix(5.2083330154418945, 0, 0, 5.2083330154418945, 0.000015000002349552233, 0.000015000002349552233)">
    <path d="m48 96c26.5097 0 48-21.4903 48-48s-21.4903-48-48-48-48 21.4903-48 48 21.4903 48 48 48zm32.0001-44c0 15.464-12.536 28-28 28s-28-12.536-28-28c0-2.8697.4317-5.6385 1.2337-8.2452 2.195 4.8617 7.0856 8.2452 12.7663 8.2452 7.732 0 14-6.268 14-14 0-5.6808-3.3835-10.5713-8.2451-12.7663 2.6066-.802 5.3754-1.2337 8.2451-1.2337 15.464 0 28 12.536 28 28z" fill="url(#a)"/>
    <path d="m80.0002 52c0 15.464-12.536 28-28 28-15.1362 0-27.4673-12.0103-27.9832-27.0209-.0113.3389-.017.6792-.017 1.0209 0 16.5685 13.4315 30 30 30s30-13.4315 30-30-13.4315-30-30-30c-.3403 0-.6793.0057-1.0169.0169 15.0088.5178 27.0171 12.8481 27.0171 27.9831z" fill="#131928" opacity=".2"/>
    <path d="m48 12c-19.8823 0-36 16.1177-36 36 0 2.2091-1.7909 4-4 4-2.20914 0-4-1.7909-4-4 0-24.3005 19.6995-44 44-44 2.2091 0 4 1.79086 4 4 0 2.2091-1.7909 4-4 4z" fill="url(#b)"/>
  </g>
</svg>