<?xml version="1.0" encoding="utf-8"?>
<svg viewBox="0 0 500 500" xmlns="http://www.w3.org/2000/svg" xmlns:xlink="http://www.w3.org/1999/xlink" id="ombi">
	<defs>
		<linearGradient id="gradient-1-0" gradientUnits="userSpaceOnUse" x1="608.141" y1="-4.828" x2="608.141" y2="422.776" gradientTransform="matrix(1.020519, 0, 0, 1.152951, -354.536009, 14.698053)" xlink:href="#gradient-1" />
		<linearGradient id="gradient-1">
			<stop offset="0.184" style="stop-color: rgb(228, 142, 51);" />
			<stop offset="0.908" style="stop-color: rgb(228, 121, 8);" />
		</linearGradient>
	</defs>
	<ellipse style="stroke: rgb(0, 0, 0); fill: url('#gradient-1-0'); stroke-width: 0px;" cx="266.085" cy="255.633" rx="250.024" ry="246.502" transform="matrix(0.9999029636383057, 0.013897000811994076, 0, 1.0000970363616943, -16.05929183959961, -9.355470657348631)" />
	<path fill="#FEFEFD" opacity="1.000000" stroke="none" d="M 333.98 277.635 C 343.775 287.232 352.953 296.965 362.745 306.055 C 379.098 321.234 382.716 339.209 376.091 360.238 C 366.811 377.998 353.242 389.058 332.653 389.944 C 319.911 390.493 308.683 386.522 299.125 378.282 C 294.405 374.211 290.082 369.693 285.272 365.199 C 274.707 354.787 264.765 344.22 254.112 334.403 C 241.125 322.438 236.029 307.712 236.74 290.722 C 236.881 287.346 238.636 284.036 240.015 280.155 C 241.405 277.542 242.426 275.47 243.725 273.612 C 250.05 280.171 256.098 286.518 261.985 293.268 C 260.464 302.075 263.291 309.045 269.281 314.947 C 283.804 329.256 298.292 343.597 312.842 357.877 C 323.525 368.361 337.87 368.727 347.99 358.868 C 357.435 349.667 356.825 334.266 346.579 324.144 C 332.467 310.204 318.218 296.398 304.261 282.31 C 297.637 275.625 290.019 272.875 280.381 274.383 C 273.747 268.16 267.463 262.05 261.18 255.941 C 279.393 246.855 297.198 247.27 314.056 258.927 C 318.989 262.339 322.942 267.135 327.325 271.316 C 329.453 273.348 331.535 275.425 333.98 277.635 Z" />
	<path fill="#FEFEFD" opacity="1.000000" stroke="none" d="M 122.191 198.022 C 121.605 191.904 120.985 186.146 120.783 180.374 C 120.689 177.692 121.405 174.981 121.754 171.829 C 127.93 152.076 140.416 139.319 161.063 135.832 C 176.924 133.154 191.107 137.087 202.733 148.514 C 216.743 162.283 230.73 176.074 245.067 190.015 C 252.582 197.282 258.619 204.939 261.338 215.003 C 264.746 227.616 262.945 239.321 256.459 250.842 C 249.827 244.888 243.74 238.776 237.819 232.255 C 239.864 224.149 237.707 217.238 232.432 211.759 C 223.051 202.015 213.118 192.787 203.26 183.006 C 197.488 177.119 192.009 171.429 186.23 166.051 C 178.094 158.482 168.213 157.039 158.625 161.662 C 149.157 166.225 144.714 174.32 145.592 185.819 C 147.454 190.381 148.431 195.333 151.408 198.393 C 166.919 214.333 182.775 229.959 198.867 245.329 C 204.569 250.774 211.812 252.921 220.137 250.414 C 226.335 256.802 232.235 262.966 237.827 269.388 C 230.167 271.628 222.817 273.612 215.101 275.513 C 214.248 275.484 213.757 275.54 212.819 275.492 C 202.1 274.688 192.829 271.266 184.443 265.428 C 183.875 264.803 183.306 264.179 182.291 263.265 C 181.632 262.7 181.352 262.524 181.009 262.451 C 181.009 262.451 181.009 262.327 180.853 262.103 C 180.503 261.596 180.236 261.422 179.896 261.354 C 179.896 261.354 179.896 261.232 179.742 261.008 C 179.392 260.501 179.124 260.327 178.784 260.259 C 178.784 260.259 178.784 260.136 178.631 259.912 C 178.281 259.405 178.013 259.231 177.673 259.163 C 177.673 259.163 177.673 259.04 177.52 258.817 C 177.17 258.309 176.902 258.135 176.562 258.067 C 176.562 258.067 176.562 257.945 176.409 257.721 C 176.059 257.214 175.791 257.039 175.451 256.972 C 175.451 256.972 175.451 256.849 175.297 256.625 C 174.947 256.118 174.68 255.944 174.34 255.876 C 174.34 255.876 174.34 255.753 174.186 255.53 C 173.836 255.022 173.568 254.848 173.228 254.78 C 173.228 254.78 173.228 254.657 173.075 254.434 C 172.725 253.927 172.457 253.752 172.117 253.685 C 172.117 253.685 172.117 253.562 171.964 253.338 C 171.614 252.831 171.346 252.657 171.006 252.589 C 171.006 252.589 171.006 252.466 170.852 252.243 C 170.502 251.735 170.235 251.561 169.895 251.493 C 169.895 251.493 169.895 251.372 169.741 251.149 C 169.391 250.646 169.121 250.481 168.779 250.433 C 168.779 250.433 168.779 250.281 168.621 250.057 C 168.274 249.548 168.008 249.383 167.667 249.336 C 167.667 249.336 167.667 249.186 167.51 248.961 C 167.163 248.453 166.897 248.287 166.555 248.24 C 166.555 248.24 166.555 248.09 166.399 247.865 C 166.052 247.357 165.785 247.192 165.444 247.144 C 165.444 247.144 165.444 246.994 165.288 246.77 C 164.941 246.261 164.674 246.096 164.333 246.049 C 164.333 246.049 164.333 245.899 164.176 245.674 C 163.83 245.166 163.563 245 163.222 244.953 C 163.222 244.953 163.222 244.803 163.065 244.578 C 162.718 244.07 162.452 243.904 162.111 243.857 C 162.111 243.857 162.111 243.707 161.954 243.483 C 161.607 242.974 161.34 242.809 160.999 242.762 C 160.999 242.762 160.999 242.612 160.843 242.387 C 160.496 241.879 160.229 241.713 159.888 241.666 C 159.888 241.666 159.888 241.516 159.731 241.291 C 159.385 240.783 159.118 240.617 158.777 240.57 C 158.777 240.57 158.777 240.42 158.62 240.196 C 158.273 239.687 158.007 239.522 157.666 239.475 C 157.666 239.475 157.666 239.325 157.509 239.1 C 157.162 238.592 156.896 238.426 156.554 238.379 C 156.554 238.379 156.554 238.229 156.398 238.004 C 156.051 237.496 155.784 237.33 155.443 237.283 C 155.443 237.283 155.443 237.133 155.287 236.909 C 154.94 236.4 154.673 236.235 154.332 236.188 C 154.332 236.188 154.332 236.038 154.175 235.813 C 153.829 235.305 153.562 235.139 153.221 235.092 C 153.221 235.092 153.221 234.942 153.064 234.717 C 152.717 234.209 152.451 234.043 152.11 233.996 C 152.11 233.996 152.11 233.846 151.953 233.622 C 151.606 233.113 151.339 232.948 150.998 232.901 C 150.998 232.901 150.998 232.75 150.842 232.526 C 150.495 232.017 150.228 231.852 149.887 231.805 C 149.887 231.805 149.887 231.655 149.73 231.43 C 149.384 230.922 149.117 230.756 148.776 230.709 C 148.776 230.709 148.776 230.559 148.619 230.335 C 148.272 229.826 148.006 229.661 147.665 229.614 C 147.665 229.614 147.665 229.463 147.508 229.239 C 147.161 228.73 146.895 228.565 146.553 228.518 C 146.553 228.518 146.553 228.368 146.397 228.143 C 146.05 227.635 145.783 227.469 145.442 227.422 C 145.442 227.422 145.442 227.272 145.286 227.047 C 144.939 226.539 144.672 226.374 144.331 226.327 C 144.331 226.327 144.331 226.176 144.174 225.952 C 143.828 225.443 143.561 225.278 143.22 225.231 C 143.22 225.231 143.22 225.081 143.063 224.856 C 142.716 224.348 142.45 224.182 142.109 224.135 C 142.109 224.135 142.109 223.985 141.952 223.76 C 141.605 223.252 141.338 223.087 140.997 223.039 C 140.997 223.039 140.997 222.889 140.841 222.665 C 140.494 222.156 140.227 221.991 139.886 221.944 C 139.886 221.944 139.886 221.794 139.729 221.569 C 139.383 221.061 139.116 220.895 138.775 220.848 C 138.775 220.848 138.775 220.698 138.618 220.473 C 138.271 219.965 138.005 219.8 137.664 219.752 C 137.664 219.752 137.663 219.621 137.436 219.302 C 134.838 216.601 132.465 214.22 130.094 211.839 C 127.506 207.352 124.917 202.864 122.191 198.022 Z" />
	<path fill="#FBF9F6" opacity="1.000000" stroke="none" d="M 283.314 185.127 C 283.339 192.728 283.209 199.835 283.229 206.943 C 283.238 210.15 282.864 213.171 278.758 212.955 C 274.958 212.754 274.337 209.887 274.397 206.645 C 274.503 200.993 274.402 195.339 274.306 189.222 C 274.307 184.62 273.989 180.415 274.656 176.37 C 274.946 174.606 277.254 173.165 278.645 171.578 C 280.152 173.227 282.387 174.655 282.981 176.578 C 283.748 179.058 283.201 181.931 283.314 185.127 Z" />
	<path fill="#E48E33" opacity="1.000000" stroke="none" d="M 202.705 110.557 C 202.683 110.565 202.725 110.551 202.705 110.557 Z" />
	<path fill="#E48E33" opacity="1.000000" stroke="none" d="M 262.71 110.557 C 262.689 110.565 262.73 110.551 262.71 110.557 Z" />
	<path fill="#E48E33" opacity="1.000000" stroke="none" d="M 256.03 110.55 C 256.051 110.542 256.009 110.556 256.03 110.55 Z" />
	<path fill="#E48E33" opacity="1.000000" stroke="none" d="M 249.365 110.559 C 249.358 110.539 249.371 110.58 249.365 110.559 Z" />
	<path fill="#E48E33" opacity="1.000000" stroke="none" d="M 242.697 110.559 C 242.691 110.539 242.704 110.58 242.697 110.559 Z" />
	<path fill="#E48E33" opacity="1.000000" stroke="none" d="M 236.028 110.55 C 236.049 110.542 236.007 110.556 236.028 110.55 Z" />
	<path fill="#E48E33" opacity="1.000000" stroke="none" d="M 229.361 110.55 C 229.382 110.542 229.339 110.556 229.361 110.55 Z" />
	<path fill="#E48E33" opacity="1.000000" stroke="none" d="M 222.704 110.546 C 222.711 110.567 222.697 110.527 222.704 110.546 Z" />
	<path fill="#E48E33" opacity="1.000000" stroke="none" d="M 216.026 110.55 C 216.047 110.542 216.005 110.556 216.026 110.55 Z" />
	<path fill="#E48E33" opacity="1.000000" stroke="none" d="M 209.37 110.546 C 209.376 110.567 209.362 110.527 209.37 110.546 Z" />
	<path fill="#E48E33" opacity="1.000000" stroke="none" d="M 269.364 110.55 C 269.386 110.542 269.343 110.556 269.364 110.55 Z" />
	<path fill="#E48E33" opacity="1.000000" stroke="none" d="M 196.035 110.546 C 196.042 110.567 196.027 110.527 196.035 110.546 Z" />
	<path fill="#E48E33" opacity="1.000000" stroke="none" d="M 189.37 110.557 C 189.349 110.565 189.39 110.551 189.37 110.557 Z" />
	<path fill="#E48E33" opacity="1.000000" stroke="none" d="M 182.689 110.55 C 182.71 110.542 182.668 110.556 182.689 110.55 Z" />
	<path fill="#E48E33" opacity="1.000000" stroke="none" d="M 176.022 110.55 C 176.043 110.542 176.001 110.556 176.022 110.55 Z" />
	<path fill="#E48E33" opacity="1.000000" stroke="none" d="M 169.368 110.557 C 169.347 110.565 169.388 110.551 169.368 110.557 Z" />
	<path fill="#E48E33" opacity="1.000000" stroke="none" d="M 162.687 110.55 C 162.708 110.542 162.666 110.556 162.687 110.55 Z" />
	<path fill="#E48E33" opacity="1.000000" stroke="none" d="M 156.031 110.546 C 156.038 110.567 156.023 110.527 156.031 110.546 Z" />
	<path fill="#E48E33" opacity="1.000000" stroke="none" d="M 149.353 110.55 C 149.374 110.542 149.331 110.556 149.353 110.55 Z" />
	<path fill="#E48E33" opacity="1.000000" stroke="none" d="M 142.135 110.006 C 142.135 110.007 142.186 110.088 142.162 110.047 C 142.136 110.005 142.136 110.006 142.135 110.006 Z" />
	<path fill="#E4851E" opacity="1.000000" stroke="none" d="M 284.935 176.3 C 284.914 176.308 284.956 176.292 284.935 176.3 Z" />
	<path fill="#E48724" opacity="1.000000" stroke="none" d="M 29.693 166.532 C 29.693 166.531 29.781 166.485 29.739 166.51 C 29.696 166.534 29.694 166.533 29.693 166.532 Z" />
	<path fill="#E48E33" opacity="1.000000" stroke="none" d="M 316.038 110.559 C 316.031 110.539 316.045 110.58 316.038 110.559 Z" />
	<path fill="#E48E33" opacity="1.000000" stroke="none" d="M 309.368 110.55 C 309.39 110.542 309.347 110.556 309.368 110.55 Z" />
	<path fill="#E48E33" opacity="1.000000" stroke="none" d="M 302.701 110.55 C 302.722 110.542 302.68 110.556 302.701 110.55 Z" />
	<path fill="#E48E33" opacity="1.000000" stroke="none" d="M 296.047 110.557 C 296.026 110.565 296.067 110.551 296.047 110.557 Z" />
	<path fill="#E48E33" opacity="1.000000" stroke="none" d="M 289.38 110.557 C 289.359 110.565 289.4 110.551 289.38 110.557 Z" />
	<path fill="#E48E33" opacity="1.000000" stroke="none" d="M 282.699 110.55 C 282.72 110.542 282.678 110.556 282.699 110.55 Z" />
	<path fill="#E48E33" opacity="1.000000" stroke="none" d="M 276.032 110.55 C 276.053 110.542 276.011 110.556 276.032 110.55 Z" />
	<path fill="#C1C0BE" opacity="1.000000" stroke="none" d="M 243.725 273.612 C 241.904 272.005 240.359 270.613 238.475 269.175 C 232.235 262.966 226.335 256.802 219.993 250.084 C 212.39 242.436 205.199 235.37 198.075 228.24 C 192.224 222.382 191.645 215.237 196.522 210.353 C 202.029 204.836 209.183 205.222 215.512 211.338 C 222.88 218.458 230.271 225.555 237.652 232.662 C 243.74 238.776 249.827 244.888 256.242 251.168 C 257.891 252.747 259.215 254.16 260.858 255.758 C 267.463 262.05 273.747 268.16 280.464 274.751 C 290.581 284.978 300.345 294.646 309.916 304.498 C 315.934 310.69 315.866 317.397 310.116 322.715 C 304.92 327.523 298.347 327.055 292.462 321.323 C 283.92 312.999 275.478 304.575 266.916 296.272 C 265.532 294.929 263.745 293.989 262.144 292.863 C 256.098 286.518 250.05 280.171 243.725 273.612 Z" />
	<path fill="#FCFAF8" opacity="1.000000" stroke="none" d="M 317.96 201.2 C 312.056 207.024 306.383 212.53 300.824 218.146 C 298.638 220.356 296.694 221.733 293.869 218.977 C 291.24 216.412 292.52 214.383 294.475 212.437 C 301.9 205.046 309.237 197.557 316.977 190.499 C 318.269 189.321 321.395 190.098 323.673 189.972 C 323.432 192.076 323.707 194.431 322.809 196.213 C 321.873 198.072 319.808 199.378 317.96 201.2 Z" />
	<path fill="#FDFBF9" opacity="1.000000" stroke="none" d="M 336.003 229.468 C 338.38 231.072 340.261 232.675 342.143 234.277 C 339.997 235.551 337.899 237.825 335.699 237.925 C 326.139 238.365 316.549 238.176 306.97 238.203 C 303.751 238.212 300.15 238.163 300.066 233.938 C 299.97 229.072 304.093 229.595 307.322 229.56 C 316.716 229.458 326.112 229.489 336.003 229.468 Z" />
	<path fill="#E4831B" opacity="1.000000" stroke="none" d="M 129.843 211.947 C 132.465 214.22 134.838 216.601 137.369 219.302 C 134.883 217.1 132.238 214.578 129.843 211.947 Z" />
	<path fill="#E4831B" opacity="1.000000" stroke="none" d="M 150.04 231.969 C 150.228 231.852 150.495 232.017 150.765 232.526 C 150.619 232.553 150.403 232.347 150.04 231.969 Z" />
	<path fill="#E4831B" opacity="1.000000" stroke="none" d="M 161.153 242.926 C 161.34 242.809 161.607 242.974 161.877 243.483 C 161.732 243.51 161.515 243.304 161.153 242.926 Z" />
	<path fill="#E4831B" opacity="1.000000" stroke="none" d="M 144.484 226.491 C 144.672 226.374 144.939 226.539 145.209 227.047 C 145.063 227.075 144.847 226.869 144.484 226.491 Z" />
	<path fill="#E4831B" opacity="1.000000" stroke="none" d="M 160.041 241.83 C 160.229 241.713 160.496 241.879 160.766 242.387 C 160.62 242.414 160.404 242.208 160.041 241.83 Z" />
	<path fill="#E4831B" opacity="1.000000" stroke="none" d="M 158.93 240.735 C 159.118 240.617 159.385 240.783 159.655 241.291 C 159.509 241.319 159.292 241.113 158.93 240.735 Z" />
	<path fill="#E4831B" opacity="1.000000" stroke="none" d="M 157.819 239.639 C 158.007 239.522 158.273 239.687 158.544 240.196 C 158.398 240.223 158.181 240.017 157.819 239.639 Z" />
	<path fill="#E4831B" opacity="1.000000" stroke="none" d="M 156.708 238.543 C 156.896 238.426 157.162 238.592 157.432 239.1 C 157.287 239.127 157.07 238.921 156.708 238.543 Z" />
	<path fill="#E4831B" opacity="1.000000" stroke="none" d="M 155.597 237.448 C 155.784 237.33 156.051 237.496 156.321 238.004 C 156.175 238.032 155.959 237.826 155.597 237.448 Z" />
	<path fill="#E4831B" opacity="1.000000" stroke="none" d="M 154.485 236.352 C 154.673 236.235 154.94 236.4 155.21 236.909 C 155.064 236.936 154.848 236.73 154.485 236.352 Z" />
	<path fill="#E4831B" opacity="1.000000" stroke="none" d="M 151.152 233.065 C 151.339 232.948 151.606 233.113 151.876 233.622 C 151.731 233.649 151.514 233.443 151.152 233.065 Z" />
	<path fill="#E4831B" opacity="1.000000" stroke="none" d="M 153.374 235.256 C 153.562 235.139 153.829 235.305 154.099 235.813 C 153.953 235.84 153.736 235.634 153.374 235.256 Z" />
	<path fill="#E4831B" opacity="1.000000" stroke="none" d="M 152.263 234.161 C 152.451 234.043 152.717 234.209 152.987 234.717 C 152.842 234.745 152.625 234.539 152.263 234.161 Z" />
	<path fill="#E4831B" opacity="1.000000" stroke="none" d="M 172.275 253.853 C 172.457 253.752 172.725 253.927 173.013 254.434 C 172.873 254.455 172.649 254.242 172.275 253.853 Z" />
	<path fill="#E47F10" opacity="1.000000" stroke="none" d="M 1.351 266.784 C 1.372 266.777 1.33 266.792 1.351 266.784 Z" />
	<path fill="#E4831B" opacity="1.000000" stroke="none" d="M 181.185 262.616 C 181.352 262.524 181.632 262.7 181.976 263.188 C 181.849 263.205 181.601 262.998 181.185 262.616 Z" />
	<path fill="#E4831B" opacity="1.000000" stroke="none" d="M 180.053 261.523 C 180.236 261.422 180.503 261.596 180.791 262.104 C 180.651 262.125 180.427 261.912 180.053 261.523 Z" />
	<path fill="#E4831B" opacity="1.000000" stroke="none" d="M 178.942 260.427 C 179.124 260.327 179.392 260.501 179.68 261.008 C 179.54 261.029 179.317 260.816 178.942 260.427 Z" />
	<path fill="#E4831B" opacity="1.000000" stroke="none" d="M 177.831 259.332 C 178.013 259.231 178.281 259.405 178.569 259.912 C 178.429 259.933 178.205 259.721 177.831 259.332 Z" />
	<path fill="#E4831B" opacity="1.000000" stroke="none" d="M 176.72 258.236 C 176.902 258.135 177.17 258.309 177.458 258.817 C 177.318 258.837 177.094 258.625 176.72 258.236 Z" />
	<path fill="#E4831B" opacity="1.000000" stroke="none" d="M 175.609 257.14 C 175.791 257.039 176.059 257.214 176.346 257.721 C 176.206 257.742 175.982 257.529 175.609 257.14 Z" />
	<path fill="#E4831B" opacity="1.000000" stroke="none" d="M 174.497 256.045 C 174.68 255.944 174.947 256.118 175.235 256.625 C 175.095 256.646 174.872 256.434 174.497 256.045 Z" />
	<path fill="#E4831B" opacity="1.000000" stroke="none" d="M 173.386 254.949 C 173.568 254.848 173.836 255.022 174.124 255.53 C 173.984 255.55 173.761 255.338 173.386 254.949 Z" />
	<path fill="#E4831B" opacity="1.000000" stroke="none" d="M 162.264 244.022 C 162.452 243.904 162.718 244.07 162.988 244.578 C 162.843 244.606 162.626 244.4 162.264 244.022 Z" />
	<path fill="#E4831B" opacity="1.000000" stroke="none" d="M 171.164 252.758 C 171.346 252.657 171.614 252.831 171.901 253.338 C 171.761 253.359 171.538 253.147 171.164 252.758 Z" />
	<path fill="#E4831B" opacity="1.000000" stroke="none" d="M 170.052 251.662 C 170.235 251.561 170.502 251.735 170.79 252.243 C 170.65 252.263 170.426 252.051 170.052 251.662 Z" />
	<path fill="#E4831B" opacity="1.000000" stroke="none" d="M 168.938 250.596 C 169.121 250.481 169.391 250.646 169.68 251.149 C 169.538 251.177 169.313 250.972 168.938 250.596 Z" />
	<path fill="#E4831B" opacity="1.000000" stroke="none" d="M 167.82 249.5 C 168.008 249.383 168.274 249.548 168.544 250.057 C 168.399 250.084 168.181 249.878 167.82 249.5 Z" />
	<path fill="#E4831B" opacity="1.000000" stroke="none" d="M 166.709 248.404 C 166.897 248.287 167.163 248.453 167.433 248.961 C 167.288 248.988 167.07 248.782 166.709 248.404 Z" />
	<path fill="#E4831B" opacity="1.000000" stroke="none" d="M 165.598 247.309 C 165.785 247.192 166.052 247.357 166.322 247.865 C 166.176 247.893 165.96 247.687 165.598 247.309 Z" />
	<path fill="#E4831B" opacity="1.000000" stroke="none" d="M 164.486 246.213 C 164.674 246.096 164.941 246.261 165.211 246.77 C 165.065 246.797 164.849 246.591 164.486 246.213 Z" />
	<path fill="#E4831B" opacity="1.000000" stroke="none" d="M 163.375 245.117 C 163.563 245 163.83 245.166 164.1 245.674 C 163.954 245.701 163.737 245.495 163.375 245.117 Z" />
	<path fill="#E4831B" opacity="1.000000" stroke="none" d="M 147.818 229.778 C 148.006 229.661 148.272 229.826 148.543 230.335 C 148.397 230.362 148.18 230.156 147.818 229.778 Z" />
	<path fill="#E4831B" opacity="1.000000" stroke="none" d="M 146.707 228.682 C 146.895 228.565 147.161 228.73 147.431 229.239 C 147.286 229.266 147.069 229.06 146.707 228.682 Z" />
	<path fill="#E4831B" opacity="1.000000" stroke="none" d="M 145.596 227.587 C 145.783 227.469 146.05 227.635 146.32 228.143 C 146.175 228.171 145.958 227.965 145.596 227.587 Z" />
	<path fill="#E4831B" opacity="1.000000" stroke="none" d="M 143.373 225.395 C 143.561 225.278 143.828 225.443 144.098 225.952 C 143.952 225.979 143.735 225.773 143.373 225.395 Z" />
	<path fill="#E4831B" opacity="1.000000" stroke="none" d="M 142.262 224.3 C 142.45 224.182 142.716 224.348 142.986 224.856 C 142.841 224.884 142.624 224.678 142.262 224.3 Z" />
	<path fill="#E4831B" opacity="1.000000" stroke="none" d="M 141.151 223.204 C 141.338 223.087 141.605 223.252 141.875 223.76 C 141.73 223.788 141.513 223.582 141.151 223.204 Z" />
	<path fill="#E4831B" opacity="1.000000" stroke="none" d="M 140.039 222.108 C 140.227 221.991 140.494 222.156 140.764 222.665 C 140.618 222.692 140.402 222.486 140.039 222.108 Z" />
	<path fill="#E4831B" opacity="1.000000" stroke="none" d="M 138.928 221.012 C 139.116 220.895 139.383 221.061 139.653 221.569 C 139.507 221.596 139.29 221.39 138.928 221.012 Z" />
	<path fill="#E4831B" opacity="1.000000" stroke="none" d="M 137.817 219.917 C 138.005 219.8 138.271 219.965 138.542 220.473 C 138.396 220.501 138.179 220.295 137.817 219.917 Z" />
	<path fill="#E4831B" opacity="1.000000" stroke="none" d="M 148.929 230.874 C 149.117 230.756 149.384 230.922 149.654 231.43 C 149.508 231.458 149.291 231.252 148.929 230.874 Z" />
	<path fill="#E47F10" opacity="1.000000" stroke="none" d="M 215.101 275.513 C 214.798 275.745 214.13 275.895 213.364 275.82 C 213.757 275.54 214.248 275.484 215.101 275.513 Z" />
	<path fill="#E48927" opacity="1.000000" stroke="none" d="M 148.255 188.351 C 148.234 188.358 148.276 188.344 148.255 188.351 Z" />
</svg>
