<?xml version="1.0" encoding="utf-8"?>
<svg version="1.1" xmlns="http://www.w3.org/2000/svg" xmlns:xlink="http://www.w3.org/1999/xlink" x="0px" y="0px" viewBox="0 0 256 256" enable-background="new 0 0 256 256" xml:space="preserve">
	<g>
		<g>
			<g>
				<path fill="#000000" d="M53.4,4.2c-1.3,0.5-3.5,1.6-4.8,2.5C44.9,9.1,15.2,38,13.2,41c-3,4.3-3.4,7.9-3.1,25.2c0.2,15,0.3,15.9,1.8,18.8c0.9,1.7,2,3.6,2.5,4.2c0.9,1,0.8,1.3-0.7,3.4c-3.5,4.6-4,7.6-3.7,24.4c0.2,14.6,0.3,15.5,1.8,18.4c0.9,1.7,2,3.6,2.6,4.2c0.9,1.1,0.9,1.3,0,2.3c-0.6,0.7-1.7,2.5-2.6,4.2c-1.5,2.9-1.6,3.8-1.8,18.8c-0.3,17.4,0.1,20.9,3.2,25.7l1.9,3l-1.9,2.9c-3,4.6-3.4,8-3.2,25.4c0.2,15.6,0.2,15.8,2,19.2c1,1.9,3.4,4.8,5.2,6.5c6.2,5.6-2.9,5.2,110.7,5.2c113.5,0,104.4,0.4,110.7-5.2c1.9-1.7,4.2-4.6,5.2-6.5c1.8-3.4,1.8-3.6,2-19.2c0.3-17.4-0.1-20.9-3.2-25.6l-1.9-3l1.5-2.3c3.4-4.9,3.8-7.3,3.5-25.3c-0.2-16-0.3-16.8-1.8-19.6c-0.9-1.7-2-3.6-2.6-4.2c-0.9-1-0.9-1.3,0-2.3c0.6-0.6,1.7-2.5,2.6-4.2c1.5-2.9,1.6-3.8,1.8-17.8c0.3-16.4-0.2-19.9-3.2-24.4l-2-3l1.6-2.1c3.2-4.3,3.7-7.3,3.7-23.7s-0.3-18.8-3.4-23.6c-3-4.7-32.8-32.8-37.4-35.2l-3.8-2l-72.8-0.1C68.6,3.3,55.5,3.4,53.4,4.2z M230,47.3l1.9,2.1v14.8v14.8L230,81L228,83H128H27.9L26,81L24,79.1V64.3c0-14,0.1-14.8,1.4-16.5c0.8-1,2.1-2.1,2.9-2.4c0.7-0.3,46-0.5,100.5-0.5l99.2,0.1L230,47.3z M227.9,98.1c3.9,2,4,2.7,4,17.6v13.7l-1.9,1.9l-1.9,1.9H128H27.9l-1.9-1.9l-1.9-1.9v-13.7c0-11.5,0.2-13.9,1.1-15.2c2.5-3.5-2.1-3.4,103.1-3.4C213.6,97.1,226.2,97.2,227.9,98.1z M230,150l1.9,1.9v14.9v14.9l-2.3,2.3l-2.3,2.3H128H28.6l-2.3-2.3l-2.3-2.3v-14.9v-14.9L26,150l1.9-1.9H128H228L230,150z M230,202.9l1.9,2.1v14.8v14.8l-1.9,1.9l-1.9,1.9H128H27.9l-1.9-1.9l-1.9-1.9v-14.8c0-14,0.1-14.8,1.4-16.5c0.8-1,2.1-2.1,2.9-2.4c0.7-0.3,46-0.5,100.5-0.5l99.2,0.1L230,202.9z" />
				<path fill="#000000" d="M39.2,57.6c-1.5,0.9-3.2,4.2-3.2,6.5c0,2.7,2.2,5.3,5.2,6.2c1.5,0.4,11,0.7,22.9,0.7s21.5-0.3,22.9-0.7c3-0.9,5.2-3.5,5.2-6.2c0-2.4-1.6-5.6-3.3-6.6C87.4,56.6,40.9,56.6,39.2,57.6z" />
				<path fill="#000000" d="M208.4,59.4c-1.5,1.5-1.9,2.5-1.9,4.8s0.4,3.2,1.9,4.8c1.5,1.5,2.5,1.9,4.8,1.9c6,0,8.9-6.7,5-11.3c-1.5-1.7-2.2-2.1-4.8-2.1C210.9,57.5,210,57.9,208.4,59.4z" />
				<path fill="#000000" d="M39.2,109.9c-1.5,0.9-3.2,4.2-3.2,6.5c0,2.7,2.2,5.3,5.2,6.2c1.5,0.4,11.1,0.7,23.5,0.7c22.5,0,24.3-0.2,26.6-3.4c2-2.9,0.7-8.4-2.2-10C87.4,108.9,40.9,108.9,39.2,109.9z" />
				<path fill="#000000" d="M187.5,111.6c-2.2,2.4-2.7,4.6-1.6,7.2c3,7,13.1,5.2,13.1-2.3c0-4-2.8-6.7-6.8-6.7C189.9,109.8,188.9,110.2,187.5,111.6z" />
				<path fill="#000000" d="M208.4,111.7c-1.5,1.5-1.9,2.5-1.9,4.8s0.4,3.2,1.9,4.8c4.4,4.3,11.5,1.3,11.5-4.8c0-2.2-0.4-3.2-1.9-4.8c-1.5-1.5-2.5-1.9-4.8-1.9C210.9,109.8,209.9,110.2,208.4,111.7z" />
				<path fill="#000000" d="M38.4,161.7c-3,3-3.2,6.2-0.3,9.3l1.9,2.2h24.3h24.3l1.9-2.2c2.8-3.1,2.7-6.2-0.3-9.3l-2.3-2.3H64.3H40.7L38.4,161.7z" />
				<path fill="#000000" d="M188.4,161.2c-4.6,3.2-3.6,10.6,1.6,12.3c4.6,1.5,9.1-1.8,9.1-6.8C199.1,161.4,192.7,158.1,188.4,161.2z" />
				<path fill="#000000" d="M208.4,162c-5,5,0.4,14,6.9,11.5c4.9-1.9,6.2-7.8,2.6-11.5c-1.5-1.5-2.5-1.9-4.8-1.9C210.9,160.1,209.9,160.5,208.4,162z" />
				<path fill="#000000" d="M38.6,213.7c-2.1,1.7-3,5.3-1.8,8.1c1.7,4,1.4,4,27.6,4h23.9l1.7-1.5c1.3-1.1,1.9-2.3,2.1-4.6c0.3-2.8,0.2-3.4-1.7-5.2l-2-2H64.4C41.1,212.4,40.2,212.5,38.6,213.7z" />
				<path fill="#000000" d="M210.7,213.1c-2.4,0.9-4.3,4-4.3,6.8c0,3.8,2.9,6.6,6.7,6.6c7.3,0,9.5-9.9,3-13.1C213.7,212.3,212.8,212.2,210.7,213.1z" />
			</g>
		</g>
	</g>
</svg>
