<?xml version="1.0" encoding="utf-8"?>
<svg viewBox="0 0 500 500" xmlns="http://www.w3.org/2000/svg">
  <g clip-rule="evenodd" fill-rule="evenodd" transform="matrix(5.2083330154418945, 0, 0, 5.2083330154418945, 0.000014000001101521775, 0.000015000001440057531)">
    <path d="M 0 48 C 0 21.49 21.49 0 48 0 C 74.51 0 96 21.49 96 48 C 96 74.51 74.51 96 48 96 C 21.49 96 0 74.51 0 48 Z M 52 24 C 49.13 24 46.362 24.432 43.755 25.234 C 48.617 27.429 52 32.319 52 38 C 52 45.732 45.732 52 38 52 C 32.319 52 27.429 48.617 25.234 43.755 C 24.432 46.362 24 49.13 24 52 C 24 52.328 24.006 52.655 24.017 52.981 C 24.006 53.319 24 53.659 24 54 C 24 70.569 37.431 84 54 84 C 70.568 84 84 70.569 84 54 C 84 37.432 70.568 24 54 24 C 53.66 24 53.322 24.006 52.984 24.017 C 52.657 24.006 52.329 24 52 24 Z M 52.983 24.017 L 52.984 24.017 C 67.992 24.535 80 36.865 80 52 C 80 36.865 67.992 24.535 52.983 24.017 Z M 38.472 76.521 C 30.111 71.898 24.366 63.125 24.017 52.981 C 24.017 52.98 24.017 52.98 24.017 52.979 C 24.366 63.124 30.111 71.898 38.472 76.521 Z M 52 8 C 52 5.791 50.209 4 48 4 C 23.699 4 4 23.7 4 48 C 4 50.209 5.791 52 8 52 C 10.209 52 12 50.209 12 48 C 12 28.118 28.118 12 48 12 C 50.209 12 52 10.209 52 8 Z" style=""/>
  </g>
</svg>